<mxfile host="app.diagrams.net" modified="2022-07-18T16:50:05.921Z" agent="5.0 (Macintosh; Intel Mac OS X 10_15_7) AppleWebKit/537.36 (KHTML, like Gecko) Chrome/103.0.0.0 Safari/537.36" etag="ZCMKY73Ht_1iBjAaFopD" version="20.0.4" type="github">
  <diagram id="XtA5CVKRbKR5JpBeC0xR" name="Page-1">
    <mxGraphModel dx="1186" dy="738" grid="1" gridSize="10" guides="1" tooltips="1" connect="1" arrows="1" fold="1" page="1" pageScale="1" pageWidth="827" pageHeight="1169" math="0" shadow="0">
      <root>
        <mxCell id="0" />
        <mxCell id="1" parent="0" />
        <mxCell id="qQ9u0ITdFLPHZTy9LnP3-21" style="edgeStyle=orthogonalEdgeStyle;rounded=0;orthogonalLoop=1;jettySize=auto;html=1;exitX=1;exitY=0.25;exitDx=0;exitDy=0;entryX=0;entryY=0.25;entryDx=0;entryDy=0;" edge="1" parent="1" source="qQ9u0ITdFLPHZTy9LnP3-16" target="qQ9u0ITdFLPHZTy9LnP3-18">
          <mxGeometry relative="1" as="geometry" />
        </mxCell>
        <mxCell id="qQ9u0ITdFLPHZTy9LnP3-16" value="" style="rounded=1;whiteSpace=wrap;html=1;" vertex="1" parent="1">
          <mxGeometry x="180" y="1210" width="150" height="110" as="geometry" />
        </mxCell>
        <mxCell id="eONeHwgocARIAwds69jC-1" value="&lt;font style=&quot;font-size: 14px;&quot; color=&quot;#000000&quot;&gt;网络&lt;/font&gt;" style="ellipse;shape=cloud;whiteSpace=wrap;html=1;fontSize=16;fillColor=#d5e8d4;strokeColor=#82b366;" parent="1" vertex="1">
          <mxGeometry x="50" y="154" width="120" height="80" as="geometry" />
        </mxCell>
        <mxCell id="eONeHwgocARIAwds69jC-2" value="" style="shape=process;whiteSpace=wrap;html=1;backgroundOutline=1;fontSize=14;size=0.03292181069958848;fillColor=#f5f5f5;strokeColor=#666666;fontColor=#333333;" parent="1" vertex="1">
          <mxGeometry x="260" y="147.5" width="520" height="102.5" as="geometry" />
        </mxCell>
        <mxCell id="eONeHwgocARIAwds69jC-4" value="" style="shape=flexArrow;endArrow=classic;startArrow=classic;html=1;rounded=0;fontSize=14;fontColor=#000000;fillColor=#fff2cc;strokeColor=#d6b656;" parent="1" edge="1">
          <mxGeometry width="100" height="100" relative="1" as="geometry">
            <mxPoint x="170" y="189.5" as="sourcePoint" />
            <mxPoint x="250" y="190" as="targetPoint" />
            <Array as="points" />
          </mxGeometry>
        </mxCell>
        <mxCell id="eONeHwgocARIAwds69jC-5" value="ChannelHandler" style="rounded=1;whiteSpace=wrap;html=1;fontSize=14;fillColor=#dae8fc;strokeColor=#6c8ebf;" parent="1" vertex="1">
          <mxGeometry x="600" y="173.75" width="120" height="50" as="geometry" />
        </mxCell>
        <mxCell id="eONeHwgocARIAwds69jC-6" value="ChannelHandler" style="rounded=1;whiteSpace=wrap;html=1;fontSize=14;fillColor=#dae8fc;strokeColor=#6c8ebf;" parent="1" vertex="1">
          <mxGeometry x="322" y="173.75" width="120" height="50" as="geometry" />
        </mxCell>
        <mxCell id="eONeHwgocARIAwds69jC-7" value="ChannelHandler" style="rounded=1;whiteSpace=wrap;html=1;fontSize=14;fillColor=#f8cecc;strokeColor=#b85450;" parent="1" vertex="1">
          <mxGeometry x="460" y="173.75" width="120" height="50" as="geometry" />
        </mxCell>
        <mxCell id="eONeHwgocARIAwds69jC-9" value="入站事件" style="rounded=0;whiteSpace=wrap;html=1;fontSize=14;fillColor=#dae8fc;strokeColor=#6c8ebf;" parent="1" vertex="1">
          <mxGeometry x="286" y="131" width="90" height="30" as="geometry" />
        </mxCell>
        <mxCell id="eONeHwgocARIAwds69jC-10" value="" style="shape=singleArrow;whiteSpace=wrap;html=1;arrowWidth=0.4;arrowSize=0.4;fontSize=14;rounded=0;fillColor=#dae8fc;strokeColor=#6c8ebf;" parent="1" vertex="1">
          <mxGeometry x="382" y="137" width="60" height="20" as="geometry" />
        </mxCell>
        <mxCell id="eONeHwgocARIAwds69jC-12" value="出站事件" style="rounded=0;whiteSpace=wrap;html=1;fontSize=14;fillColor=#f8cecc;strokeColor=#b85450;" parent="1" vertex="1">
          <mxGeometry x="659" y="234" width="90" height="30" as="geometry" />
        </mxCell>
        <mxCell id="eONeHwgocARIAwds69jC-13" value="" style="shape=singleArrow;whiteSpace=wrap;html=1;arrowWidth=0.4;arrowSize=0.4;fontSize=14;rounded=0;fillColor=#f8cecc;strokeColor=#b85450;rotation=-180;" parent="1" vertex="1">
          <mxGeometry x="590" y="240" width="60" height="20" as="geometry" />
        </mxCell>
        <mxCell id="eONeHwgocARIAwds69jC-14" value="" style="shape=flexArrow;endArrow=classic;startArrow=classic;html=1;rounded=0;fontSize=14;fontColor=#000000;fillColor=#fff2cc;strokeColor=#d6b656;" parent="1" edge="1">
          <mxGeometry width="100" height="100" relative="1" as="geometry">
            <mxPoint x="790" y="198.25" as="sourcePoint" />
            <mxPoint x="870" y="198.75" as="targetPoint" />
            <Array as="points" />
          </mxGeometry>
        </mxCell>
        <mxCell id="eONeHwgocARIAwds69jC-15" value="业务处理" style="ellipse;whiteSpace=wrap;html=1;fontSize=14;fillColor=#e1d5e7;strokeColor=#9673a6;" parent="1" vertex="1">
          <mxGeometry x="880" y="158.75" width="120" height="80" as="geometry" />
        </mxCell>
        <mxCell id="eONeHwgocARIAwds69jC-20" style="edgeStyle=orthogonalEdgeStyle;rounded=0;orthogonalLoop=1;jettySize=auto;html=1;exitX=1;exitY=0.5;exitDx=0;exitDy=0;entryX=0;entryY=0.5;entryDx=0;entryDy=0;fontSize=14;fontColor=#000000;curved=1;" parent="1" source="eONeHwgocARIAwds69jC-16" target="eONeHwgocARIAwds69jC-17" edge="1">
          <mxGeometry relative="1" as="geometry" />
        </mxCell>
        <mxCell id="eONeHwgocARIAwds69jC-21" style="edgeStyle=orthogonalEdgeStyle;curved=1;rounded=0;orthogonalLoop=1;jettySize=auto;html=1;exitX=1;exitY=0.5;exitDx=0;exitDy=0;fontSize=14;fontColor=#000000;" parent="1" source="eONeHwgocARIAwds69jC-16" target="eONeHwgocARIAwds69jC-19" edge="1">
          <mxGeometry relative="1" as="geometry" />
        </mxCell>
        <mxCell id="eONeHwgocARIAwds69jC-22" style="edgeStyle=orthogonalEdgeStyle;curved=1;rounded=0;orthogonalLoop=1;jettySize=auto;html=1;exitX=1;exitY=0.5;exitDx=0;exitDy=0;entryX=0;entryY=0.5;entryDx=0;entryDy=0;fontSize=14;fontColor=#000000;" parent="1" source="eONeHwgocARIAwds69jC-16" target="eONeHwgocARIAwds69jC-18" edge="1">
          <mxGeometry relative="1" as="geometry" />
        </mxCell>
        <mxCell id="eONeHwgocARIAwds69jC-16" value="EventLoopGroup" style="ellipse;whiteSpace=wrap;html=1;fontSize=14;fillColor=#dae8fc;strokeColor=#6c8ebf;" parent="1" vertex="1">
          <mxGeometry x="90" y="725" width="160" height="80" as="geometry" />
        </mxCell>
        <mxCell id="eONeHwgocARIAwds69jC-17" value="EventLoop" style="ellipse;whiteSpace=wrap;html=1;fontSize=14;fillColor=#d5e8d4;strokeColor=#82b366;" parent="1" vertex="1">
          <mxGeometry x="300" y="565" width="120" height="80" as="geometry" />
        </mxCell>
        <mxCell id="eONeHwgocARIAwds69jC-18" value="EventLoop" style="ellipse;whiteSpace=wrap;html=1;fontSize=14;fillColor=#d5e8d4;strokeColor=#82b366;" parent="1" vertex="1">
          <mxGeometry x="300" y="865" width="120" height="80" as="geometry" />
        </mxCell>
        <mxCell id="eONeHwgocARIAwds69jC-19" value="EventLoop" style="ellipse;whiteSpace=wrap;html=1;fontSize=14;fillColor=#d5e8d4;strokeColor=#82b366;" parent="1" vertex="1">
          <mxGeometry x="300" y="725" width="120" height="80" as="geometry" />
        </mxCell>
        <mxCell id="eONeHwgocARIAwds69jC-23" value="Channel" style="ellipse;whiteSpace=wrap;html=1;fontSize=14;fillColor=#f8cecc;strokeColor=#b85450;" parent="1" vertex="1">
          <mxGeometry x="670" y="540" width="120" height="80" as="geometry" />
        </mxCell>
        <mxCell id="eONeHwgocARIAwds69jC-24" value="Channel" style="ellipse;whiteSpace=wrap;html=1;fontSize=14;fillColor=#f8cecc;strokeColor=#b85450;" parent="1" vertex="1">
          <mxGeometry x="680" y="550" width="120" height="80" as="geometry" />
        </mxCell>
        <mxCell id="eONeHwgocARIAwds69jC-25" value="Channel" style="ellipse;whiteSpace=wrap;html=1;fontSize=14;fillColor=#f8cecc;strokeColor=#b85450;" parent="1" vertex="1">
          <mxGeometry x="680" y="550" width="120" height="80" as="geometry" />
        </mxCell>
        <mxCell id="eONeHwgocARIAwds69jC-26" value="Channel" style="ellipse;whiteSpace=wrap;html=1;fontSize=14;fillColor=#f8cecc;strokeColor=#b85450;" parent="1" vertex="1">
          <mxGeometry x="690" y="560" width="120" height="80" as="geometry" />
        </mxCell>
        <mxCell id="eONeHwgocARIAwds69jC-27" value="Channel" style="ellipse;whiteSpace=wrap;html=1;fontSize=14;fillColor=#f8cecc;strokeColor=#b85450;" parent="1" vertex="1">
          <mxGeometry x="700" y="570" width="120" height="80" as="geometry" />
        </mxCell>
        <mxCell id="eONeHwgocARIAwds69jC-28" value="Channel" style="ellipse;whiteSpace=wrap;html=1;fontSize=14;fillColor=#f8cecc;strokeColor=#b85450;" parent="1" vertex="1">
          <mxGeometry x="710" y="580" width="120" height="80" as="geometry" />
        </mxCell>
        <mxCell id="eONeHwgocARIAwds69jC-29" value="Channel" style="ellipse;whiteSpace=wrap;html=1;fontSize=14;fillColor=#f8cecc;strokeColor=#b85450;" parent="1" vertex="1">
          <mxGeometry x="720" y="590" width="120" height="80" as="geometry" />
        </mxCell>
        <mxCell id="eONeHwgocARIAwds69jC-43" value="Channel" style="ellipse;whiteSpace=wrap;html=1;fontSize=14;fillColor=#f8cecc;strokeColor=#b85450;" parent="1" vertex="1">
          <mxGeometry x="680" y="550" width="120" height="80" as="geometry" />
        </mxCell>
        <mxCell id="eONeHwgocARIAwds69jC-44" value="Channel" style="ellipse;whiteSpace=wrap;html=1;fontSize=14;fillColor=#f8cecc;strokeColor=#b85450;" parent="1" vertex="1">
          <mxGeometry x="690" y="560" width="120" height="80" as="geometry" />
        </mxCell>
        <mxCell id="eONeHwgocARIAwds69jC-45" value="Channel" style="ellipse;whiteSpace=wrap;html=1;fontSize=14;fillColor=#f8cecc;strokeColor=#b85450;" parent="1" vertex="1">
          <mxGeometry x="690" y="560" width="120" height="80" as="geometry" />
        </mxCell>
        <mxCell id="eONeHwgocARIAwds69jC-46" value="Channel" style="ellipse;whiteSpace=wrap;html=1;fontSize=14;fillColor=#f8cecc;strokeColor=#b85450;" parent="1" vertex="1">
          <mxGeometry x="700" y="570" width="120" height="80" as="geometry" />
        </mxCell>
        <mxCell id="eONeHwgocARIAwds69jC-47" value="Channel" style="ellipse;whiteSpace=wrap;html=1;fontSize=14;fillColor=#f8cecc;strokeColor=#b85450;" parent="1" vertex="1">
          <mxGeometry x="710" y="580" width="120" height="80" as="geometry" />
        </mxCell>
        <mxCell id="eONeHwgocARIAwds69jC-48" value="Channel" style="ellipse;whiteSpace=wrap;html=1;fontSize=14;fillColor=#f8cecc;strokeColor=#b85450;" parent="1" vertex="1">
          <mxGeometry x="720" y="590" width="120" height="80" as="geometry" />
        </mxCell>
        <mxCell id="eONeHwgocARIAwds69jC-49" value="Channel" style="ellipse;whiteSpace=wrap;html=1;fontSize=14;fillColor=#f8cecc;strokeColor=#b85450;" parent="1" vertex="1">
          <mxGeometry x="730" y="600" width="120" height="80" as="geometry" />
        </mxCell>
        <mxCell id="eONeHwgocARIAwds69jC-50" value="Channel" style="ellipse;whiteSpace=wrap;html=1;fontSize=14;fillColor=#f8cecc;strokeColor=#b85450;" parent="1" vertex="1">
          <mxGeometry x="675" y="695" width="120" height="80" as="geometry" />
        </mxCell>
        <mxCell id="eONeHwgocARIAwds69jC-51" value="Channel" style="ellipse;whiteSpace=wrap;html=1;fontSize=14;fillColor=#f8cecc;strokeColor=#b85450;" parent="1" vertex="1">
          <mxGeometry x="685" y="705" width="120" height="80" as="geometry" />
        </mxCell>
        <mxCell id="eONeHwgocARIAwds69jC-52" value="Channel" style="ellipse;whiteSpace=wrap;html=1;fontSize=14;fillColor=#f8cecc;strokeColor=#b85450;" parent="1" vertex="1">
          <mxGeometry x="685" y="705" width="120" height="80" as="geometry" />
        </mxCell>
        <mxCell id="eONeHwgocARIAwds69jC-53" value="Channel" style="ellipse;whiteSpace=wrap;html=1;fontSize=14;fillColor=#f8cecc;strokeColor=#b85450;" parent="1" vertex="1">
          <mxGeometry x="695" y="715" width="120" height="80" as="geometry" />
        </mxCell>
        <mxCell id="eONeHwgocARIAwds69jC-54" value="Channel" style="ellipse;whiteSpace=wrap;html=1;fontSize=14;fillColor=#f8cecc;strokeColor=#b85450;" parent="1" vertex="1">
          <mxGeometry x="705" y="725" width="120" height="80" as="geometry" />
        </mxCell>
        <mxCell id="eONeHwgocARIAwds69jC-55" value="Channel" style="ellipse;whiteSpace=wrap;html=1;fontSize=14;fillColor=#f8cecc;strokeColor=#b85450;" parent="1" vertex="1">
          <mxGeometry x="715" y="735" width="120" height="80" as="geometry" />
        </mxCell>
        <mxCell id="eONeHwgocARIAwds69jC-56" value="Channel" style="ellipse;whiteSpace=wrap;html=1;fontSize=14;fillColor=#f8cecc;strokeColor=#b85450;" parent="1" vertex="1">
          <mxGeometry x="725" y="745" width="120" height="80" as="geometry" />
        </mxCell>
        <mxCell id="eONeHwgocARIAwds69jC-57" value="Channel" style="ellipse;whiteSpace=wrap;html=1;fontSize=14;fillColor=#f8cecc;strokeColor=#b85450;" parent="1" vertex="1">
          <mxGeometry x="675" y="835" width="120" height="80" as="geometry" />
        </mxCell>
        <mxCell id="eONeHwgocARIAwds69jC-58" value="Channel" style="ellipse;whiteSpace=wrap;html=1;fontSize=14;fillColor=#f8cecc;strokeColor=#b85450;" parent="1" vertex="1">
          <mxGeometry x="685" y="845" width="120" height="80" as="geometry" />
        </mxCell>
        <mxCell id="eONeHwgocARIAwds69jC-59" value="Channel" style="ellipse;whiteSpace=wrap;html=1;fontSize=14;fillColor=#f8cecc;strokeColor=#b85450;" parent="1" vertex="1">
          <mxGeometry x="685" y="845" width="120" height="80" as="geometry" />
        </mxCell>
        <mxCell id="eONeHwgocARIAwds69jC-60" value="Channel" style="ellipse;whiteSpace=wrap;html=1;fontSize=14;fillColor=#f8cecc;strokeColor=#b85450;" parent="1" vertex="1">
          <mxGeometry x="695" y="855" width="120" height="80" as="geometry" />
        </mxCell>
        <mxCell id="eONeHwgocARIAwds69jC-61" value="Channel" style="ellipse;whiteSpace=wrap;html=1;fontSize=14;fillColor=#f8cecc;strokeColor=#b85450;" parent="1" vertex="1">
          <mxGeometry x="705" y="865" width="120" height="80" as="geometry" />
        </mxCell>
        <mxCell id="eONeHwgocARIAwds69jC-62" value="Channel" style="ellipse;whiteSpace=wrap;html=1;fontSize=14;fillColor=#f8cecc;strokeColor=#b85450;" parent="1" vertex="1">
          <mxGeometry x="715" y="875" width="120" height="80" as="geometry" />
        </mxCell>
        <mxCell id="eONeHwgocARIAwds69jC-63" value="Channel" style="ellipse;whiteSpace=wrap;html=1;fontSize=14;fillColor=#f8cecc;strokeColor=#b85450;" parent="1" vertex="1">
          <mxGeometry x="725" y="885" width="120" height="80" as="geometry" />
        </mxCell>
        <mxCell id="eONeHwgocARIAwds69jC-64" style="edgeStyle=none;rounded=0;orthogonalLoop=1;jettySize=auto;html=1;exitX=1;exitY=0.5;exitDx=0;exitDy=0;entryX=0;entryY=0.5;entryDx=0;entryDy=0;fontSize=14;fontColor=#000000;" parent="1" source="eONeHwgocARIAwds69jC-19" target="eONeHwgocARIAwds69jC-50" edge="1">
          <mxGeometry relative="1" as="geometry" />
        </mxCell>
        <mxCell id="eONeHwgocARIAwds69jC-67" style="edgeStyle=none;rounded=0;orthogonalLoop=1;jettySize=auto;html=1;exitX=1;exitY=0.5;exitDx=0;exitDy=0;entryX=0;entryY=0.5;entryDx=0;entryDy=0;fontSize=14;fontColor=#000000;" parent="1" source="eONeHwgocARIAwds69jC-19" target="eONeHwgocARIAwds69jC-53" edge="1">
          <mxGeometry relative="1" as="geometry" />
        </mxCell>
        <mxCell id="eONeHwgocARIAwds69jC-68" style="edgeStyle=none;rounded=0;orthogonalLoop=1;jettySize=auto;html=1;exitX=1;exitY=0.5;exitDx=0;exitDy=0;entryX=0;entryY=0.5;entryDx=0;entryDy=0;fontSize=14;fontColor=#000000;" parent="1" source="eONeHwgocARIAwds69jC-19" target="eONeHwgocARIAwds69jC-54" edge="1">
          <mxGeometry relative="1" as="geometry" />
        </mxCell>
        <mxCell id="eONeHwgocARIAwds69jC-69" style="edgeStyle=none;rounded=0;orthogonalLoop=1;jettySize=auto;html=1;exitX=1;exitY=0.5;exitDx=0;exitDy=0;fontSize=14;fontColor=#000000;" parent="1" source="eONeHwgocARIAwds69jC-19" target="eONeHwgocARIAwds69jC-55" edge="1">
          <mxGeometry relative="1" as="geometry" />
        </mxCell>
        <mxCell id="eONeHwgocARIAwds69jC-71" style="edgeStyle=none;rounded=0;orthogonalLoop=1;jettySize=auto;html=1;exitX=1;exitY=0.5;exitDx=0;exitDy=0;fontSize=14;fontColor=#000000;" parent="1" source="eONeHwgocARIAwds69jC-19" target="eONeHwgocARIAwds69jC-56" edge="1">
          <mxGeometry relative="1" as="geometry" />
        </mxCell>
        <mxCell id="eONeHwgocARIAwds69jC-66" style="edgeStyle=none;rounded=0;orthogonalLoop=1;jettySize=auto;html=1;exitX=1;exitY=0.5;exitDx=0;exitDy=0;entryX=0;entryY=0.5;entryDx=0;entryDy=0;fontSize=14;fontColor=#000000;" parent="1" source="eONeHwgocARIAwds69jC-19" target="eONeHwgocARIAwds69jC-52" edge="1">
          <mxGeometry relative="1" as="geometry" />
        </mxCell>
        <mxCell id="eONeHwgocARIAwds69jC-65" style="edgeStyle=none;rounded=0;orthogonalLoop=1;jettySize=auto;html=1;exitX=1;exitY=0.5;exitDx=0;exitDy=0;entryX=0;entryY=0.5;entryDx=0;entryDy=0;fontSize=14;fontColor=#000000;" parent="1" source="eONeHwgocARIAwds69jC-18" target="eONeHwgocARIAwds69jC-57" edge="1">
          <mxGeometry relative="1" as="geometry" />
        </mxCell>
        <mxCell id="eONeHwgocARIAwds69jC-73" style="edgeStyle=none;rounded=0;orthogonalLoop=1;jettySize=auto;html=1;exitX=1;exitY=0.5;exitDx=0;exitDy=0;entryX=0;entryY=0.5;entryDx=0;entryDy=0;fontSize=14;fontColor=#000000;" parent="1" source="eONeHwgocARIAwds69jC-18" target="eONeHwgocARIAwds69jC-59" edge="1">
          <mxGeometry relative="1" as="geometry" />
        </mxCell>
        <mxCell id="eONeHwgocARIAwds69jC-74" style="edgeStyle=none;rounded=0;orthogonalLoop=1;jettySize=auto;html=1;exitX=1;exitY=0.5;exitDx=0;exitDy=0;entryX=0;entryY=0.5;entryDx=0;entryDy=0;fontSize=14;fontColor=#000000;" parent="1" source="eONeHwgocARIAwds69jC-18" target="eONeHwgocARIAwds69jC-60" edge="1">
          <mxGeometry relative="1" as="geometry" />
        </mxCell>
        <mxCell id="eONeHwgocARIAwds69jC-75" style="edgeStyle=none;rounded=0;orthogonalLoop=1;jettySize=auto;html=1;exitX=1;exitY=0.5;exitDx=0;exitDy=0;entryX=0;entryY=0.5;entryDx=0;entryDy=0;fontSize=14;fontColor=#000000;" parent="1" source="eONeHwgocARIAwds69jC-18" target="eONeHwgocARIAwds69jC-61" edge="1">
          <mxGeometry relative="1" as="geometry" />
        </mxCell>
        <mxCell id="eONeHwgocARIAwds69jC-76" style="edgeStyle=none;rounded=0;orthogonalLoop=1;jettySize=auto;html=1;exitX=1;exitY=0.5;exitDx=0;exitDy=0;entryX=0;entryY=0.5;entryDx=0;entryDy=0;fontSize=14;fontColor=#000000;" parent="1" source="eONeHwgocARIAwds69jC-18" target="eONeHwgocARIAwds69jC-62" edge="1">
          <mxGeometry relative="1" as="geometry" />
        </mxCell>
        <mxCell id="eONeHwgocARIAwds69jC-77" style="edgeStyle=none;rounded=0;orthogonalLoop=1;jettySize=auto;html=1;exitX=1;exitY=0.5;exitDx=0;exitDy=0;fontSize=14;fontColor=#000000;" parent="1" source="eONeHwgocARIAwds69jC-18" target="eONeHwgocARIAwds69jC-63" edge="1">
          <mxGeometry relative="1" as="geometry" />
        </mxCell>
        <mxCell id="eONeHwgocARIAwds69jC-30" style="rounded=0;orthogonalLoop=1;jettySize=auto;html=1;exitX=1;exitY=0.5;exitDx=0;exitDy=0;entryX=0;entryY=0.5;entryDx=0;entryDy=0;fontSize=14;fontColor=#000000;" parent="1" source="eONeHwgocARIAwds69jC-17" target="eONeHwgocARIAwds69jC-23" edge="1">
          <mxGeometry relative="1" as="geometry" />
        </mxCell>
        <mxCell id="eONeHwgocARIAwds69jC-31" style="edgeStyle=none;rounded=0;orthogonalLoop=1;jettySize=auto;html=1;exitX=1;exitY=0.5;exitDx=0;exitDy=0;entryX=0;entryY=0.5;entryDx=0;entryDy=0;fontSize=14;fontColor=#000000;" parent="1" source="eONeHwgocARIAwds69jC-17" target="eONeHwgocARIAwds69jC-25" edge="1">
          <mxGeometry relative="1" as="geometry" />
        </mxCell>
        <mxCell id="eONeHwgocARIAwds69jC-32" style="edgeStyle=none;rounded=0;orthogonalLoop=1;jettySize=auto;html=1;exitX=1;exitY=0.5;exitDx=0;exitDy=0;entryX=0;entryY=0.5;entryDx=0;entryDy=0;fontSize=14;fontColor=#000000;" parent="1" source="eONeHwgocARIAwds69jC-17" target="eONeHwgocARIAwds69jC-26" edge="1">
          <mxGeometry relative="1" as="geometry" />
        </mxCell>
        <mxCell id="eONeHwgocARIAwds69jC-33" style="edgeStyle=none;rounded=0;orthogonalLoop=1;jettySize=auto;html=1;exitX=1;exitY=0.5;exitDx=0;exitDy=0;entryX=0;entryY=0.5;entryDx=0;entryDy=0;fontSize=14;fontColor=#000000;" parent="1" source="eONeHwgocARIAwds69jC-17" target="eONeHwgocARIAwds69jC-27" edge="1">
          <mxGeometry relative="1" as="geometry" />
        </mxCell>
        <mxCell id="eONeHwgocARIAwds69jC-34" style="edgeStyle=none;rounded=0;orthogonalLoop=1;jettySize=auto;html=1;exitX=1;exitY=0.5;exitDx=0;exitDy=0;entryX=0;entryY=0.5;entryDx=0;entryDy=0;fontSize=14;fontColor=#000000;" parent="1" source="eONeHwgocARIAwds69jC-17" target="eONeHwgocARIAwds69jC-28" edge="1">
          <mxGeometry relative="1" as="geometry" />
        </mxCell>
        <mxCell id="eONeHwgocARIAwds69jC-35" style="edgeStyle=none;rounded=0;orthogonalLoop=1;jettySize=auto;html=1;exitX=1;exitY=0.5;exitDx=0;exitDy=0;entryX=0;entryY=0.5;entryDx=0;entryDy=0;fontSize=14;fontColor=#000000;" parent="1" source="eONeHwgocARIAwds69jC-17" target="eONeHwgocARIAwds69jC-29" edge="1">
          <mxGeometry relative="1" as="geometry" />
        </mxCell>
        <mxCell id="eONeHwgocARIAwds69jC-78" value="所有 EventLoop 都是由&lt;br&gt;EventLoopGroup 分配" style="whiteSpace=wrap;html=1;shape=partialRectangle;top=0;left=0;bottom=1;right=0;points=[[0,1],[1,1]];fillColor=#fff2cc;align=center;verticalAlign=bottom;routingCenterY=0.5;snapToPoint=1;recursiveResize=0;autosize=1;treeFolding=1;treeMoving=1;newEdgeStyle={&quot;edgeStyle&quot;:&quot;entityRelationEdgeStyle&quot;,&quot;startArrow&quot;:&quot;none&quot;,&quot;endArrow&quot;:&quot;none&quot;,&quot;segment&quot;:10,&quot;curved&quot;:1};fontSize=14;strokeColor=#d6b656;" parent="1" vertex="1">
          <mxGeometry x="50" y="630" width="190" height="50" as="geometry" />
        </mxCell>
        <mxCell id="eONeHwgocARIAwds69jC-79" value="" style="edgeStyle=entityRelationEdgeStyle;startArrow=none;endArrow=none;segment=10;curved=1;rounded=0;fontColor=#000000;fontSize=14;exitX=0.5;exitY=0;exitDx=0;exitDy=0;" parent="1" source="eONeHwgocARIAwds69jC-16" target="eONeHwgocARIAwds69jC-78" edge="1">
          <mxGeometry relative="1" as="geometry">
            <mxPoint x="120" y="670" as="sourcePoint" />
          </mxGeometry>
        </mxCell>
        <mxCell id="eONeHwgocARIAwds69jC-80" value="每个 EventLoop 将处理分配给&lt;br&gt;它所有的 Channel 的所有事件和任务&lt;br&gt;每个 EventLoop 都和一个 Thread 相关联" style="whiteSpace=wrap;html=1;shape=partialRectangle;top=0;left=0;bottom=1;right=0;points=[[0,1],[1,1]];fillColor=#fff2cc;align=center;verticalAlign=bottom;routingCenterY=0.5;snapToPoint=1;recursiveResize=0;autosize=1;treeFolding=1;treeMoving=1;newEdgeStyle={&quot;edgeStyle&quot;:&quot;entityRelationEdgeStyle&quot;,&quot;startArrow&quot;:&quot;none&quot;,&quot;endArrow&quot;:&quot;none&quot;,&quot;segment&quot;:10,&quot;curved&quot;:1};fontSize=14;strokeColor=#d6b656;" parent="1" vertex="1">
          <mxGeometry x="215" y="450" width="290" height="60" as="geometry" />
        </mxCell>
        <mxCell id="eONeHwgocARIAwds69jC-81" value="" style="edgeStyle=entityRelationEdgeStyle;startArrow=none;endArrow=none;segment=10;curved=1;rounded=0;fontColor=#000000;fontSize=14;exitX=0.5;exitY=0;exitDx=0;exitDy=0;" parent="1" source="eONeHwgocARIAwds69jC-17" target="eONeHwgocARIAwds69jC-80" edge="1">
          <mxGeometry relative="1" as="geometry">
            <mxPoint x="300" y="480" as="sourcePoint" />
          </mxGeometry>
        </mxCell>
        <mxCell id="eONeHwgocARIAwds69jC-82" value="EventLoopGroup 将为每个新创建的&lt;br&gt;Channel 分配一个 EventLoop。&lt;br&gt;在每个 Channel 的整个生命周期内，所有&lt;br&gt;操作都将由相同的 Thread 执行" style="whiteSpace=wrap;html=1;shape=partialRectangle;top=0;left=0;bottom=1;right=0;points=[[0,1],[1,1]];fillColor=#fff2cc;align=center;verticalAlign=bottom;routingCenterY=0.5;snapToPoint=1;recursiveResize=0;autosize=1;treeFolding=1;treeMoving=1;newEdgeStyle={&quot;edgeStyle&quot;:&quot;entityRelationEdgeStyle&quot;,&quot;startArrow&quot;:&quot;none&quot;,&quot;endArrow&quot;:&quot;none&quot;,&quot;segment&quot;:10,&quot;curved&quot;:1};fontSize=14;strokeColor=#d6b656;" parent="1" vertex="1">
          <mxGeometry x="585" y="410" width="300" height="80" as="geometry" />
        </mxCell>
        <mxCell id="eONeHwgocARIAwds69jC-83" value="" style="edgeStyle=entityRelationEdgeStyle;startArrow=none;endArrow=none;segment=10;curved=1;rounded=0;fontColor=#000000;fontSize=14;exitX=0.5;exitY=0;exitDx=0;exitDy=0;" parent="1" source="eONeHwgocARIAwds69jC-23" target="eONeHwgocARIAwds69jC-82" edge="1">
          <mxGeometry relative="1" as="geometry">
            <mxPoint x="749" y="470" as="sourcePoint" />
          </mxGeometry>
        </mxCell>
        <mxCell id="qQ9u0ITdFLPHZTy9LnP3-14" value="入站&lt;br&gt;ChannelHandler" style="rounded=1;whiteSpace=wrap;html=1;fontSize=14;fillColor=#d5e8d4;strokeColor=#82b366;" vertex="1" parent="1">
          <mxGeometry x="195" y="1230" width="120" height="50" as="geometry" />
        </mxCell>
        <mxCell id="qQ9u0ITdFLPHZTy9LnP3-17" value="Context" style="text;html=1;strokeColor=none;fillColor=none;align=center;verticalAlign=middle;whiteSpace=wrap;rounded=0;fontStyle=1" vertex="1" parent="1">
          <mxGeometry x="225" y="1290" width="60" height="30" as="geometry" />
        </mxCell>
        <mxCell id="qQ9u0ITdFLPHZTy9LnP3-22" style="edgeStyle=orthogonalEdgeStyle;rounded=0;orthogonalLoop=1;jettySize=auto;html=1;exitX=0;exitY=0.75;exitDx=0;exitDy=0;entryX=1;entryY=0.75;entryDx=0;entryDy=0;" edge="1" parent="1" source="qQ9u0ITdFLPHZTy9LnP3-18" target="qQ9u0ITdFLPHZTy9LnP3-16">
          <mxGeometry relative="1" as="geometry" />
        </mxCell>
        <mxCell id="qQ9u0ITdFLPHZTy9LnP3-26" style="edgeStyle=orthogonalEdgeStyle;rounded=0;orthogonalLoop=1;jettySize=auto;html=1;exitX=1;exitY=0.25;exitDx=0;exitDy=0;entryX=0;entryY=0.25;entryDx=0;entryDy=0;" edge="1" parent="1" source="qQ9u0ITdFLPHZTy9LnP3-18" target="qQ9u0ITdFLPHZTy9LnP3-23">
          <mxGeometry relative="1" as="geometry" />
        </mxCell>
        <mxCell id="qQ9u0ITdFLPHZTy9LnP3-18" value="" style="rounded=1;whiteSpace=wrap;html=1;" vertex="1" parent="1">
          <mxGeometry x="400" y="1210" width="150" height="110" as="geometry" />
        </mxCell>
        <mxCell id="qQ9u0ITdFLPHZTy9LnP3-19" value="出站&lt;br&gt;ChannelHandler" style="rounded=1;whiteSpace=wrap;html=1;fontSize=14;fillColor=#f8cecc;strokeColor=#b85450;" vertex="1" parent="1">
          <mxGeometry x="415" y="1230" width="120" height="50" as="geometry" />
        </mxCell>
        <mxCell id="qQ9u0ITdFLPHZTy9LnP3-20" value="Context" style="text;html=1;strokeColor=none;fillColor=none;align=center;verticalAlign=middle;whiteSpace=wrap;rounded=0;fontStyle=1" vertex="1" parent="1">
          <mxGeometry x="445" y="1290" width="60" height="30" as="geometry" />
        </mxCell>
        <mxCell id="qQ9u0ITdFLPHZTy9LnP3-27" style="edgeStyle=orthogonalEdgeStyle;rounded=0;orthogonalLoop=1;jettySize=auto;html=1;exitX=0;exitY=0.75;exitDx=0;exitDy=0;entryX=1;entryY=0.75;entryDx=0;entryDy=0;" edge="1" parent="1" source="qQ9u0ITdFLPHZTy9LnP3-23" target="qQ9u0ITdFLPHZTy9LnP3-18">
          <mxGeometry relative="1" as="geometry" />
        </mxCell>
        <mxCell id="qQ9u0ITdFLPHZTy9LnP3-31" style="edgeStyle=orthogonalEdgeStyle;rounded=0;orthogonalLoop=1;jettySize=auto;html=1;exitX=1;exitY=0.25;exitDx=0;exitDy=0;entryX=0;entryY=0.25;entryDx=0;entryDy=0;" edge="1" parent="1" source="qQ9u0ITdFLPHZTy9LnP3-23" target="qQ9u0ITdFLPHZTy9LnP3-28">
          <mxGeometry relative="1" as="geometry" />
        </mxCell>
        <mxCell id="qQ9u0ITdFLPHZTy9LnP3-23" value="" style="rounded=1;whiteSpace=wrap;html=1;" vertex="1" parent="1">
          <mxGeometry x="620" y="1210" width="150" height="110" as="geometry" />
        </mxCell>
        <mxCell id="qQ9u0ITdFLPHZTy9LnP3-24" value="入站&lt;br&gt;ChannelHandler" style="rounded=1;whiteSpace=wrap;html=1;fontSize=14;fillColor=#d5e8d4;strokeColor=#82b366;" vertex="1" parent="1">
          <mxGeometry x="635" y="1230" width="120" height="50" as="geometry" />
        </mxCell>
        <mxCell id="qQ9u0ITdFLPHZTy9LnP3-25" value="Context" style="text;html=1;strokeColor=none;fillColor=none;align=center;verticalAlign=middle;whiteSpace=wrap;rounded=0;fontStyle=1" vertex="1" parent="1">
          <mxGeometry x="665" y="1290" width="60" height="30" as="geometry" />
        </mxCell>
        <mxCell id="qQ9u0ITdFLPHZTy9LnP3-32" style="edgeStyle=orthogonalEdgeStyle;rounded=0;orthogonalLoop=1;jettySize=auto;html=1;exitX=0;exitY=0.75;exitDx=0;exitDy=0;entryX=1;entryY=0.75;entryDx=0;entryDy=0;" edge="1" parent="1" source="qQ9u0ITdFLPHZTy9LnP3-28" target="qQ9u0ITdFLPHZTy9LnP3-23">
          <mxGeometry relative="1" as="geometry" />
        </mxCell>
        <mxCell id="qQ9u0ITdFLPHZTy9LnP3-28" value="" style="rounded=1;whiteSpace=wrap;html=1;" vertex="1" parent="1">
          <mxGeometry x="840" y="1210" width="150" height="110" as="geometry" />
        </mxCell>
        <mxCell id="qQ9u0ITdFLPHZTy9LnP3-29" value="出站&lt;br&gt;ChannelHandler" style="rounded=1;whiteSpace=wrap;html=1;fontSize=14;fillColor=#f8cecc;strokeColor=#b85450;" vertex="1" parent="1">
          <mxGeometry x="855" y="1230" width="120" height="50" as="geometry" />
        </mxCell>
        <mxCell id="qQ9u0ITdFLPHZTy9LnP3-30" value="Context" style="text;html=1;strokeColor=none;fillColor=none;align=center;verticalAlign=middle;whiteSpace=wrap;rounded=0;fontStyle=1" vertex="1" parent="1">
          <mxGeometry x="885" y="1290" width="60" height="30" as="geometry" />
        </mxCell>
        <mxCell id="qQ9u0ITdFLPHZTy9LnP3-47" value="" style="group" vertex="1" connectable="0" parent="1">
          <mxGeometry x="260" y="1580" width="560" height="40" as="geometry" />
        </mxCell>
        <mxCell id="qQ9u0ITdFLPHZTy9LnP3-33" value="00" style="whiteSpace=wrap;html=1;aspect=fixed;fillColor=#fff2cc;strokeColor=#d6b656;" vertex="1" parent="qQ9u0ITdFLPHZTy9LnP3-47">
          <mxGeometry width="40" height="40" as="geometry" />
        </mxCell>
        <mxCell id="qQ9u0ITdFLPHZTy9LnP3-34" value="0C" style="whiteSpace=wrap;html=1;aspect=fixed;fillColor=#fff2cc;strokeColor=#d6b656;" vertex="1" parent="qQ9u0ITdFLPHZTy9LnP3-47">
          <mxGeometry x="40" width="40" height="40" as="geometry" />
        </mxCell>
        <mxCell id="qQ9u0ITdFLPHZTy9LnP3-35" value="H" style="whiteSpace=wrap;html=1;aspect=fixed;fillColor=#d5e8d4;strokeColor=#82b366;" vertex="1" parent="qQ9u0ITdFLPHZTy9LnP3-47">
          <mxGeometry x="80" width="40" height="40" as="geometry" />
        </mxCell>
        <mxCell id="qQ9u0ITdFLPHZTy9LnP3-36" value="e" style="whiteSpace=wrap;html=1;aspect=fixed;fillColor=#d5e8d4;strokeColor=#82b366;" vertex="1" parent="qQ9u0ITdFLPHZTy9LnP3-47">
          <mxGeometry x="120" width="40" height="40" as="geometry" />
        </mxCell>
        <mxCell id="qQ9u0ITdFLPHZTy9LnP3-37" value="l" style="whiteSpace=wrap;html=1;aspect=fixed;fillColor=#d5e8d4;strokeColor=#82b366;" vertex="1" parent="qQ9u0ITdFLPHZTy9LnP3-47">
          <mxGeometry x="160" width="40" height="40" as="geometry" />
        </mxCell>
        <mxCell id="qQ9u0ITdFLPHZTy9LnP3-38" value="l" style="whiteSpace=wrap;html=1;aspect=fixed;fillColor=#d5e8d4;strokeColor=#82b366;" vertex="1" parent="qQ9u0ITdFLPHZTy9LnP3-47">
          <mxGeometry x="200" width="40" height="40" as="geometry" />
        </mxCell>
        <mxCell id="qQ9u0ITdFLPHZTy9LnP3-39" value="o" style="whiteSpace=wrap;html=1;aspect=fixed;fillColor=#d5e8d4;strokeColor=#82b366;" vertex="1" parent="qQ9u0ITdFLPHZTy9LnP3-47">
          <mxGeometry x="240" width="40" height="40" as="geometry" />
        </mxCell>
        <mxCell id="qQ9u0ITdFLPHZTy9LnP3-40" value="," style="whiteSpace=wrap;html=1;aspect=fixed;fillColor=#d5e8d4;strokeColor=#82b366;" vertex="1" parent="qQ9u0ITdFLPHZTy9LnP3-47">
          <mxGeometry x="280" width="40" height="40" as="geometry" />
        </mxCell>
        <mxCell id="qQ9u0ITdFLPHZTy9LnP3-41" value="空格" style="whiteSpace=wrap;html=1;aspect=fixed;fillColor=#d5e8d4;strokeColor=#82b366;" vertex="1" parent="qQ9u0ITdFLPHZTy9LnP3-47">
          <mxGeometry x="320" width="40" height="40" as="geometry" />
        </mxCell>
        <mxCell id="qQ9u0ITdFLPHZTy9LnP3-42" value="w" style="whiteSpace=wrap;html=1;aspect=fixed;fillColor=#d5e8d4;strokeColor=#82b366;" vertex="1" parent="qQ9u0ITdFLPHZTy9LnP3-47">
          <mxGeometry x="360" width="40" height="40" as="geometry" />
        </mxCell>
        <mxCell id="qQ9u0ITdFLPHZTy9LnP3-43" value="o" style="whiteSpace=wrap;html=1;aspect=fixed;fillColor=#d5e8d4;strokeColor=#82b366;" vertex="1" parent="qQ9u0ITdFLPHZTy9LnP3-47">
          <mxGeometry x="400" width="40" height="40" as="geometry" />
        </mxCell>
        <mxCell id="qQ9u0ITdFLPHZTy9LnP3-44" value="r" style="whiteSpace=wrap;html=1;aspect=fixed;fillColor=#d5e8d4;strokeColor=#82b366;" vertex="1" parent="qQ9u0ITdFLPHZTy9LnP3-47">
          <mxGeometry x="440" width="40" height="40" as="geometry" />
        </mxCell>
        <mxCell id="qQ9u0ITdFLPHZTy9LnP3-45" value="l" style="whiteSpace=wrap;html=1;aspect=fixed;fillColor=#d5e8d4;strokeColor=#82b366;" vertex="1" parent="qQ9u0ITdFLPHZTy9LnP3-47">
          <mxGeometry x="480" width="40" height="40" as="geometry" />
        </mxCell>
        <mxCell id="qQ9u0ITdFLPHZTy9LnP3-46" value="d" style="whiteSpace=wrap;html=1;aspect=fixed;fillColor=#d5e8d4;strokeColor=#82b366;" vertex="1" parent="qQ9u0ITdFLPHZTy9LnP3-47">
          <mxGeometry x="520" width="40" height="40" as="geometry" />
        </mxCell>
        <mxCell id="qQ9u0ITdFLPHZTy9LnP3-48" value="" style="group" vertex="1" connectable="0" parent="1">
          <mxGeometry x="260" y="1730" width="560" height="40" as="geometry" />
        </mxCell>
        <mxCell id="qQ9u0ITdFLPHZTy9LnP3-49" value="00" style="whiteSpace=wrap;html=1;aspect=fixed;fillColor=#fff2cc;strokeColor=#d6b656;" vertex="1" parent="qQ9u0ITdFLPHZTy9LnP3-48">
          <mxGeometry width="40" height="40" as="geometry" />
        </mxCell>
        <mxCell id="qQ9u0ITdFLPHZTy9LnP3-50" value="0C" style="whiteSpace=wrap;html=1;aspect=fixed;fillColor=#fff2cc;strokeColor=#d6b656;" vertex="1" parent="qQ9u0ITdFLPHZTy9LnP3-48">
          <mxGeometry x="40" width="40" height="40" as="geometry" />
        </mxCell>
        <mxCell id="qQ9u0ITdFLPHZTy9LnP3-51" value="H" style="whiteSpace=wrap;html=1;aspect=fixed;fillColor=#d5e8d4;strokeColor=#82b366;" vertex="1" parent="qQ9u0ITdFLPHZTy9LnP3-48">
          <mxGeometry x="80" width="40" height="40" as="geometry" />
        </mxCell>
        <mxCell id="qQ9u0ITdFLPHZTy9LnP3-52" value="e" style="whiteSpace=wrap;html=1;aspect=fixed;fillColor=#d5e8d4;strokeColor=#82b366;" vertex="1" parent="qQ9u0ITdFLPHZTy9LnP3-48">
          <mxGeometry x="120" width="40" height="40" as="geometry" />
        </mxCell>
        <mxCell id="qQ9u0ITdFLPHZTy9LnP3-53" value="l" style="whiteSpace=wrap;html=1;aspect=fixed;fillColor=#d5e8d4;strokeColor=#82b366;" vertex="1" parent="qQ9u0ITdFLPHZTy9LnP3-48">
          <mxGeometry x="160" width="40" height="40" as="geometry" />
        </mxCell>
        <mxCell id="qQ9u0ITdFLPHZTy9LnP3-54" value="l" style="whiteSpace=wrap;html=1;aspect=fixed;fillColor=#d5e8d4;strokeColor=#82b366;" vertex="1" parent="qQ9u0ITdFLPHZTy9LnP3-48">
          <mxGeometry x="200" width="40" height="40" as="geometry" />
        </mxCell>
        <mxCell id="qQ9u0ITdFLPHZTy9LnP3-55" value="o" style="whiteSpace=wrap;html=1;aspect=fixed;fillColor=#d5e8d4;strokeColor=#82b366;" vertex="1" parent="qQ9u0ITdFLPHZTy9LnP3-48">
          <mxGeometry x="240" width="40" height="40" as="geometry" />
        </mxCell>
        <mxCell id="qQ9u0ITdFLPHZTy9LnP3-56" value="," style="whiteSpace=wrap;html=1;aspect=fixed;fillColor=#d5e8d4;strokeColor=#82b366;" vertex="1" parent="qQ9u0ITdFLPHZTy9LnP3-48">
          <mxGeometry x="280" width="40" height="40" as="geometry" />
        </mxCell>
        <mxCell id="qQ9u0ITdFLPHZTy9LnP3-57" value="空格" style="whiteSpace=wrap;html=1;aspect=fixed;fillColor=#d5e8d4;strokeColor=#82b366;" vertex="1" parent="qQ9u0ITdFLPHZTy9LnP3-48">
          <mxGeometry x="320" width="40" height="40" as="geometry" />
        </mxCell>
        <mxCell id="qQ9u0ITdFLPHZTy9LnP3-58" value="w" style="whiteSpace=wrap;html=1;aspect=fixed;fillColor=#d5e8d4;strokeColor=#82b366;" vertex="1" parent="qQ9u0ITdFLPHZTy9LnP3-48">
          <mxGeometry x="360" width="40" height="40" as="geometry" />
        </mxCell>
        <mxCell id="qQ9u0ITdFLPHZTy9LnP3-59" value="o" style="whiteSpace=wrap;html=1;aspect=fixed;fillColor=#d5e8d4;strokeColor=#82b366;" vertex="1" parent="qQ9u0ITdFLPHZTy9LnP3-48">
          <mxGeometry x="400" width="40" height="40" as="geometry" />
        </mxCell>
        <mxCell id="qQ9u0ITdFLPHZTy9LnP3-60" value="r" style="whiteSpace=wrap;html=1;aspect=fixed;fillColor=#d5e8d4;strokeColor=#82b366;" vertex="1" parent="qQ9u0ITdFLPHZTy9LnP3-48">
          <mxGeometry x="440" width="40" height="40" as="geometry" />
        </mxCell>
        <mxCell id="qQ9u0ITdFLPHZTy9LnP3-61" value="l" style="whiteSpace=wrap;html=1;aspect=fixed;fillColor=#d5e8d4;strokeColor=#82b366;" vertex="1" parent="qQ9u0ITdFLPHZTy9LnP3-48">
          <mxGeometry x="480" width="40" height="40" as="geometry" />
        </mxCell>
        <mxCell id="qQ9u0ITdFLPHZTy9LnP3-62" value="d" style="whiteSpace=wrap;html=1;aspect=fixed;fillColor=#d5e8d4;strokeColor=#82b366;" vertex="1" parent="qQ9u0ITdFLPHZTy9LnP3-48">
          <mxGeometry x="520" width="40" height="40" as="geometry" />
        </mxCell>
        <mxCell id="qQ9u0ITdFLPHZTy9LnP3-63" value="" style="shape=flexArrow;endArrow=classic;html=1;rounded=0;fillColor=#f8cecc;strokeColor=#b85450;" edge="1" parent="1">
          <mxGeometry width="50" height="50" relative="1" as="geometry">
            <mxPoint x="410" y="1640" as="sourcePoint" />
            <mxPoint x="410" y="1710" as="targetPoint" />
          </mxGeometry>
        </mxCell>
        <mxCell id="qQ9u0ITdFLPHZTy9LnP3-64" value="lengthFieldOffset：0&lt;br&gt;&lt;font color=&quot;#ff0000&quot;&gt;lengthFieldLength：2&lt;br&gt;&lt;/font&gt;lengthAdjustment：0&lt;br&gt;initialBytesToStrip：0" style="text;html=1;strokeColor=none;fillColor=none;align=left;verticalAlign=middle;whiteSpace=wrap;rounded=0;" vertex="1" parent="1">
          <mxGeometry x="442" y="1640" width="155" height="70" as="geometry" />
        </mxCell>
        <mxCell id="qQ9u0ITdFLPHZTy9LnP3-65" value="" style="group" vertex="1" connectable="0" parent="1">
          <mxGeometry x="260" y="1910" width="560" height="40" as="geometry" />
        </mxCell>
        <mxCell id="qQ9u0ITdFLPHZTy9LnP3-66" value="00" style="whiteSpace=wrap;html=1;aspect=fixed;fillColor=#fff2cc;strokeColor=#d6b656;" vertex="1" parent="qQ9u0ITdFLPHZTy9LnP3-65">
          <mxGeometry width="40" height="40" as="geometry" />
        </mxCell>
        <mxCell id="qQ9u0ITdFLPHZTy9LnP3-67" value="0C" style="whiteSpace=wrap;html=1;aspect=fixed;fillColor=#fff2cc;strokeColor=#d6b656;" vertex="1" parent="qQ9u0ITdFLPHZTy9LnP3-65">
          <mxGeometry x="40" width="40" height="40" as="geometry" />
        </mxCell>
        <mxCell id="qQ9u0ITdFLPHZTy9LnP3-68" value="H" style="whiteSpace=wrap;html=1;aspect=fixed;fillColor=#d5e8d4;strokeColor=#82b366;" vertex="1" parent="qQ9u0ITdFLPHZTy9LnP3-65">
          <mxGeometry x="80" width="40" height="40" as="geometry" />
        </mxCell>
        <mxCell id="qQ9u0ITdFLPHZTy9LnP3-69" value="e" style="whiteSpace=wrap;html=1;aspect=fixed;fillColor=#d5e8d4;strokeColor=#82b366;" vertex="1" parent="qQ9u0ITdFLPHZTy9LnP3-65">
          <mxGeometry x="120" width="40" height="40" as="geometry" />
        </mxCell>
        <mxCell id="qQ9u0ITdFLPHZTy9LnP3-70" value="l" style="whiteSpace=wrap;html=1;aspect=fixed;fillColor=#d5e8d4;strokeColor=#82b366;" vertex="1" parent="qQ9u0ITdFLPHZTy9LnP3-65">
          <mxGeometry x="160" width="40" height="40" as="geometry" />
        </mxCell>
        <mxCell id="qQ9u0ITdFLPHZTy9LnP3-71" value="l" style="whiteSpace=wrap;html=1;aspect=fixed;fillColor=#d5e8d4;strokeColor=#82b366;" vertex="1" parent="qQ9u0ITdFLPHZTy9LnP3-65">
          <mxGeometry x="200" width="40" height="40" as="geometry" />
        </mxCell>
        <mxCell id="qQ9u0ITdFLPHZTy9LnP3-72" value="o" style="whiteSpace=wrap;html=1;aspect=fixed;fillColor=#d5e8d4;strokeColor=#82b366;" vertex="1" parent="qQ9u0ITdFLPHZTy9LnP3-65">
          <mxGeometry x="240" width="40" height="40" as="geometry" />
        </mxCell>
        <mxCell id="qQ9u0ITdFLPHZTy9LnP3-73" value="," style="whiteSpace=wrap;html=1;aspect=fixed;fillColor=#d5e8d4;strokeColor=#82b366;" vertex="1" parent="qQ9u0ITdFLPHZTy9LnP3-65">
          <mxGeometry x="280" width="40" height="40" as="geometry" />
        </mxCell>
        <mxCell id="qQ9u0ITdFLPHZTy9LnP3-74" value="空格" style="whiteSpace=wrap;html=1;aspect=fixed;fillColor=#d5e8d4;strokeColor=#82b366;" vertex="1" parent="qQ9u0ITdFLPHZTy9LnP3-65">
          <mxGeometry x="320" width="40" height="40" as="geometry" />
        </mxCell>
        <mxCell id="qQ9u0ITdFLPHZTy9LnP3-75" value="w" style="whiteSpace=wrap;html=1;aspect=fixed;fillColor=#d5e8d4;strokeColor=#82b366;" vertex="1" parent="qQ9u0ITdFLPHZTy9LnP3-65">
          <mxGeometry x="360" width="40" height="40" as="geometry" />
        </mxCell>
        <mxCell id="qQ9u0ITdFLPHZTy9LnP3-76" value="o" style="whiteSpace=wrap;html=1;aspect=fixed;fillColor=#d5e8d4;strokeColor=#82b366;" vertex="1" parent="qQ9u0ITdFLPHZTy9LnP3-65">
          <mxGeometry x="400" width="40" height="40" as="geometry" />
        </mxCell>
        <mxCell id="qQ9u0ITdFLPHZTy9LnP3-77" value="r" style="whiteSpace=wrap;html=1;aspect=fixed;fillColor=#d5e8d4;strokeColor=#82b366;" vertex="1" parent="qQ9u0ITdFLPHZTy9LnP3-65">
          <mxGeometry x="440" width="40" height="40" as="geometry" />
        </mxCell>
        <mxCell id="qQ9u0ITdFLPHZTy9LnP3-78" value="l" style="whiteSpace=wrap;html=1;aspect=fixed;fillColor=#d5e8d4;strokeColor=#82b366;" vertex="1" parent="qQ9u0ITdFLPHZTy9LnP3-65">
          <mxGeometry x="480" width="40" height="40" as="geometry" />
        </mxCell>
        <mxCell id="qQ9u0ITdFLPHZTy9LnP3-79" value="d" style="whiteSpace=wrap;html=1;aspect=fixed;fillColor=#d5e8d4;strokeColor=#82b366;" vertex="1" parent="qQ9u0ITdFLPHZTy9LnP3-65">
          <mxGeometry x="520" width="40" height="40" as="geometry" />
        </mxCell>
        <mxCell id="qQ9u0ITdFLPHZTy9LnP3-95" value="" style="shape=flexArrow;endArrow=classic;html=1;rounded=0;fillColor=#f8cecc;strokeColor=#b85450;" edge="1" parent="1">
          <mxGeometry width="50" height="50" relative="1" as="geometry">
            <mxPoint x="410" y="1970" as="sourcePoint" />
            <mxPoint x="410" y="2040" as="targetPoint" />
          </mxGeometry>
        </mxCell>
        <mxCell id="qQ9u0ITdFLPHZTy9LnP3-96" value="lengthFieldOffset：0&lt;br&gt;&lt;font color=&quot;#ff0000&quot;&gt;lengthFieldLength：2&lt;/font&gt;&lt;br&gt;lengthAdjustment：0&lt;br&gt;&lt;font color=&quot;#ff0000&quot;&gt;initialBytesToStrip：2&lt;/font&gt;" style="text;html=1;strokeColor=none;fillColor=none;align=left;verticalAlign=middle;whiteSpace=wrap;rounded=0;" vertex="1" parent="1">
          <mxGeometry x="442" y="1970" width="155" height="70" as="geometry" />
        </mxCell>
        <mxCell id="qQ9u0ITdFLPHZTy9LnP3-97" value="原封不动传递" style="shape=umlFrame;whiteSpace=wrap;html=1;shadow=0;labelBackgroundColor=none;fontSize=14;fillColor=#dae8fc;width=110;height=30;strokeColor=#6c8ebf;" vertex="1" parent="1">
          <mxGeometry x="200" y="1530" width="680" height="280" as="geometry" />
        </mxCell>
        <mxCell id="qQ9u0ITdFLPHZTy9LnP3-98" value="去除长度传递" style="shape=umlFrame;whiteSpace=wrap;html=1;shadow=0;labelBackgroundColor=none;fontSize=14;fillColor=#dae8fc;width=110;height=30;strokeColor=#6c8ebf;" vertex="1" parent="1">
          <mxGeometry x="200" y="1860" width="680" height="280" as="geometry" />
        </mxCell>
        <mxCell id="qQ9u0ITdFLPHZTy9LnP3-99" value="" style="group" vertex="1" connectable="0" parent="1">
          <mxGeometry x="260" y="2240" width="560" height="40" as="geometry" />
        </mxCell>
        <mxCell id="qQ9u0ITdFLPHZTy9LnP3-100" value="00" style="whiteSpace=wrap;html=1;aspect=fixed;fillColor=#fff2cc;strokeColor=#d6b656;" vertex="1" parent="qQ9u0ITdFLPHZTy9LnP3-99">
          <mxGeometry width="40" height="40" as="geometry" />
        </mxCell>
        <mxCell id="qQ9u0ITdFLPHZTy9LnP3-101" value="0E" style="whiteSpace=wrap;html=1;aspect=fixed;fillColor=#fff2cc;strokeColor=#d6b656;" vertex="1" parent="qQ9u0ITdFLPHZTy9LnP3-99">
          <mxGeometry x="40" width="40" height="40" as="geometry" />
        </mxCell>
        <mxCell id="qQ9u0ITdFLPHZTy9LnP3-102" value="H" style="whiteSpace=wrap;html=1;aspect=fixed;fillColor=#d5e8d4;strokeColor=#82b366;" vertex="1" parent="qQ9u0ITdFLPHZTy9LnP3-99">
          <mxGeometry x="80" width="40" height="40" as="geometry" />
        </mxCell>
        <mxCell id="qQ9u0ITdFLPHZTy9LnP3-103" value="e" style="whiteSpace=wrap;html=1;aspect=fixed;fillColor=#d5e8d4;strokeColor=#82b366;" vertex="1" parent="qQ9u0ITdFLPHZTy9LnP3-99">
          <mxGeometry x="120" width="40" height="40" as="geometry" />
        </mxCell>
        <mxCell id="qQ9u0ITdFLPHZTy9LnP3-104" value="l" style="whiteSpace=wrap;html=1;aspect=fixed;fillColor=#d5e8d4;strokeColor=#82b366;" vertex="1" parent="qQ9u0ITdFLPHZTy9LnP3-99">
          <mxGeometry x="160" width="40" height="40" as="geometry" />
        </mxCell>
        <mxCell id="qQ9u0ITdFLPHZTy9LnP3-105" value="l" style="whiteSpace=wrap;html=1;aspect=fixed;fillColor=#d5e8d4;strokeColor=#82b366;" vertex="1" parent="qQ9u0ITdFLPHZTy9LnP3-99">
          <mxGeometry x="200" width="40" height="40" as="geometry" />
        </mxCell>
        <mxCell id="qQ9u0ITdFLPHZTy9LnP3-106" value="o" style="whiteSpace=wrap;html=1;aspect=fixed;fillColor=#d5e8d4;strokeColor=#82b366;" vertex="1" parent="qQ9u0ITdFLPHZTy9LnP3-99">
          <mxGeometry x="240" width="40" height="40" as="geometry" />
        </mxCell>
        <mxCell id="qQ9u0ITdFLPHZTy9LnP3-107" value="," style="whiteSpace=wrap;html=1;aspect=fixed;fillColor=#d5e8d4;strokeColor=#82b366;" vertex="1" parent="qQ9u0ITdFLPHZTy9LnP3-99">
          <mxGeometry x="280" width="40" height="40" as="geometry" />
        </mxCell>
        <mxCell id="qQ9u0ITdFLPHZTy9LnP3-108" value="空格" style="whiteSpace=wrap;html=1;aspect=fixed;fillColor=#d5e8d4;strokeColor=#82b366;" vertex="1" parent="qQ9u0ITdFLPHZTy9LnP3-99">
          <mxGeometry x="320" width="40" height="40" as="geometry" />
        </mxCell>
        <mxCell id="qQ9u0ITdFLPHZTy9LnP3-109" value="w" style="whiteSpace=wrap;html=1;aspect=fixed;fillColor=#d5e8d4;strokeColor=#82b366;" vertex="1" parent="qQ9u0ITdFLPHZTy9LnP3-99">
          <mxGeometry x="360" width="40" height="40" as="geometry" />
        </mxCell>
        <mxCell id="qQ9u0ITdFLPHZTy9LnP3-110" value="o" style="whiteSpace=wrap;html=1;aspect=fixed;fillColor=#d5e8d4;strokeColor=#82b366;" vertex="1" parent="qQ9u0ITdFLPHZTy9LnP3-99">
          <mxGeometry x="400" width="40" height="40" as="geometry" />
        </mxCell>
        <mxCell id="qQ9u0ITdFLPHZTy9LnP3-111" value="r" style="whiteSpace=wrap;html=1;aspect=fixed;fillColor=#d5e8d4;strokeColor=#82b366;" vertex="1" parent="qQ9u0ITdFLPHZTy9LnP3-99">
          <mxGeometry x="440" width="40" height="40" as="geometry" />
        </mxCell>
        <mxCell id="qQ9u0ITdFLPHZTy9LnP3-112" value="l" style="whiteSpace=wrap;html=1;aspect=fixed;fillColor=#d5e8d4;strokeColor=#82b366;" vertex="1" parent="qQ9u0ITdFLPHZTy9LnP3-99">
          <mxGeometry x="480" width="40" height="40" as="geometry" />
        </mxCell>
        <mxCell id="qQ9u0ITdFLPHZTy9LnP3-113" value="d" style="whiteSpace=wrap;html=1;aspect=fixed;fillColor=#d5e8d4;strokeColor=#82b366;" vertex="1" parent="qQ9u0ITdFLPHZTy9LnP3-99">
          <mxGeometry x="520" width="40" height="40" as="geometry" />
        </mxCell>
        <mxCell id="qQ9u0ITdFLPHZTy9LnP3-114" value="" style="shape=flexArrow;endArrow=classic;html=1;rounded=0;fillColor=#f8cecc;strokeColor=#b85450;" edge="1" parent="1">
          <mxGeometry width="50" height="50" relative="1" as="geometry">
            <mxPoint x="410" y="2300" as="sourcePoint" />
            <mxPoint x="410" y="2370" as="targetPoint" />
          </mxGeometry>
        </mxCell>
        <mxCell id="qQ9u0ITdFLPHZTy9LnP3-115" value="lengthFieldOffset：0&lt;br&gt;&lt;font color=&quot;#ff0000&quot;&gt;lengthFieldLength：2&lt;/font&gt;&lt;br&gt;&lt;font color=&quot;#ff0000&quot;&gt;lengthAdjustment：-2&lt;/font&gt;&lt;br&gt;initialBytesToStrip：0" style="text;html=1;strokeColor=none;fillColor=none;align=left;verticalAlign=middle;whiteSpace=wrap;rounded=0;" vertex="1" parent="1">
          <mxGeometry x="442" y="2300" width="155" height="70" as="geometry" />
        </mxCell>
        <mxCell id="qQ9u0ITdFLPHZTy9LnP3-128" value="长度字段包含整体" style="shape=umlFrame;whiteSpace=wrap;html=1;shadow=0;labelBackgroundColor=none;fontSize=14;fillColor=#dae8fc;width=155;height=30;strokeColor=#6c8ebf;" vertex="1" parent="1">
          <mxGeometry x="200" y="2190" width="680" height="280" as="geometry" />
        </mxCell>
        <mxCell id="qQ9u0ITdFLPHZTy9LnP3-129" value="" style="group" vertex="1" connectable="0" parent="1">
          <mxGeometry x="260" y="2060" width="480" height="40" as="geometry" />
        </mxCell>
        <mxCell id="qQ9u0ITdFLPHZTy9LnP3-83" value="H" style="whiteSpace=wrap;html=1;aspect=fixed;fillColor=#d5e8d4;strokeColor=#82b366;" vertex="1" parent="qQ9u0ITdFLPHZTy9LnP3-129">
          <mxGeometry width="40" height="40" as="geometry" />
        </mxCell>
        <mxCell id="qQ9u0ITdFLPHZTy9LnP3-84" value="e" style="whiteSpace=wrap;html=1;aspect=fixed;fillColor=#d5e8d4;strokeColor=#82b366;" vertex="1" parent="qQ9u0ITdFLPHZTy9LnP3-129">
          <mxGeometry x="40" width="40" height="40" as="geometry" />
        </mxCell>
        <mxCell id="qQ9u0ITdFLPHZTy9LnP3-85" value="l" style="whiteSpace=wrap;html=1;aspect=fixed;fillColor=#d5e8d4;strokeColor=#82b366;" vertex="1" parent="qQ9u0ITdFLPHZTy9LnP3-129">
          <mxGeometry x="80" width="40" height="40" as="geometry" />
        </mxCell>
        <mxCell id="qQ9u0ITdFLPHZTy9LnP3-86" value="l" style="whiteSpace=wrap;html=1;aspect=fixed;fillColor=#d5e8d4;strokeColor=#82b366;" vertex="1" parent="qQ9u0ITdFLPHZTy9LnP3-129">
          <mxGeometry x="120" width="40" height="40" as="geometry" />
        </mxCell>
        <mxCell id="qQ9u0ITdFLPHZTy9LnP3-87" value="o" style="whiteSpace=wrap;html=1;aspect=fixed;fillColor=#d5e8d4;strokeColor=#82b366;" vertex="1" parent="qQ9u0ITdFLPHZTy9LnP3-129">
          <mxGeometry x="160" width="40" height="40" as="geometry" />
        </mxCell>
        <mxCell id="qQ9u0ITdFLPHZTy9LnP3-88" value="," style="whiteSpace=wrap;html=1;aspect=fixed;fillColor=#d5e8d4;strokeColor=#82b366;" vertex="1" parent="qQ9u0ITdFLPHZTy9LnP3-129">
          <mxGeometry x="200" width="40" height="40" as="geometry" />
        </mxCell>
        <mxCell id="qQ9u0ITdFLPHZTy9LnP3-89" value="空格" style="whiteSpace=wrap;html=1;aspect=fixed;fillColor=#d5e8d4;strokeColor=#82b366;" vertex="1" parent="qQ9u0ITdFLPHZTy9LnP3-129">
          <mxGeometry x="240" width="40" height="40" as="geometry" />
        </mxCell>
        <mxCell id="qQ9u0ITdFLPHZTy9LnP3-90" value="w" style="whiteSpace=wrap;html=1;aspect=fixed;fillColor=#d5e8d4;strokeColor=#82b366;" vertex="1" parent="qQ9u0ITdFLPHZTy9LnP3-129">
          <mxGeometry x="280" width="40" height="40" as="geometry" />
        </mxCell>
        <mxCell id="qQ9u0ITdFLPHZTy9LnP3-91" value="o" style="whiteSpace=wrap;html=1;aspect=fixed;fillColor=#d5e8d4;strokeColor=#82b366;" vertex="1" parent="qQ9u0ITdFLPHZTy9LnP3-129">
          <mxGeometry x="320" width="40" height="40" as="geometry" />
        </mxCell>
        <mxCell id="qQ9u0ITdFLPHZTy9LnP3-92" value="r" style="whiteSpace=wrap;html=1;aspect=fixed;fillColor=#d5e8d4;strokeColor=#82b366;" vertex="1" parent="qQ9u0ITdFLPHZTy9LnP3-129">
          <mxGeometry x="360" width="40" height="40" as="geometry" />
        </mxCell>
        <mxCell id="qQ9u0ITdFLPHZTy9LnP3-93" value="l" style="whiteSpace=wrap;html=1;aspect=fixed;fillColor=#d5e8d4;strokeColor=#82b366;" vertex="1" parent="qQ9u0ITdFLPHZTy9LnP3-129">
          <mxGeometry x="400" width="40" height="40" as="geometry" />
        </mxCell>
        <mxCell id="qQ9u0ITdFLPHZTy9LnP3-94" value="d" style="whiteSpace=wrap;html=1;aspect=fixed;fillColor=#d5e8d4;strokeColor=#82b366;" vertex="1" parent="qQ9u0ITdFLPHZTy9LnP3-129">
          <mxGeometry x="440" width="40" height="40" as="geometry" />
        </mxCell>
        <mxCell id="qQ9u0ITdFLPHZTy9LnP3-132" value="" style="group" vertex="1" connectable="0" parent="1">
          <mxGeometry x="260" y="2390" width="560" height="40" as="geometry" />
        </mxCell>
        <mxCell id="qQ9u0ITdFLPHZTy9LnP3-116" value="H" style="whiteSpace=wrap;html=1;aspect=fixed;fillColor=#d5e8d4;strokeColor=#82b366;" vertex="1" parent="qQ9u0ITdFLPHZTy9LnP3-132">
          <mxGeometry x="80" width="40" height="40" as="geometry" />
        </mxCell>
        <mxCell id="qQ9u0ITdFLPHZTy9LnP3-117" value="e" style="whiteSpace=wrap;html=1;aspect=fixed;fillColor=#d5e8d4;strokeColor=#82b366;" vertex="1" parent="qQ9u0ITdFLPHZTy9LnP3-132">
          <mxGeometry x="120" width="40" height="40" as="geometry" />
        </mxCell>
        <mxCell id="qQ9u0ITdFLPHZTy9LnP3-118" value="l" style="whiteSpace=wrap;html=1;aspect=fixed;fillColor=#d5e8d4;strokeColor=#82b366;" vertex="1" parent="qQ9u0ITdFLPHZTy9LnP3-132">
          <mxGeometry x="160" width="40" height="40" as="geometry" />
        </mxCell>
        <mxCell id="qQ9u0ITdFLPHZTy9LnP3-119" value="l" style="whiteSpace=wrap;html=1;aspect=fixed;fillColor=#d5e8d4;strokeColor=#82b366;" vertex="1" parent="qQ9u0ITdFLPHZTy9LnP3-132">
          <mxGeometry x="200" width="40" height="40" as="geometry" />
        </mxCell>
        <mxCell id="qQ9u0ITdFLPHZTy9LnP3-120" value="o" style="whiteSpace=wrap;html=1;aspect=fixed;fillColor=#d5e8d4;strokeColor=#82b366;" vertex="1" parent="qQ9u0ITdFLPHZTy9LnP3-132">
          <mxGeometry x="240" width="40" height="40" as="geometry" />
        </mxCell>
        <mxCell id="qQ9u0ITdFLPHZTy9LnP3-121" value="," style="whiteSpace=wrap;html=1;aspect=fixed;fillColor=#d5e8d4;strokeColor=#82b366;" vertex="1" parent="qQ9u0ITdFLPHZTy9LnP3-132">
          <mxGeometry x="280" width="40" height="40" as="geometry" />
        </mxCell>
        <mxCell id="qQ9u0ITdFLPHZTy9LnP3-122" value="空格" style="whiteSpace=wrap;html=1;aspect=fixed;fillColor=#d5e8d4;strokeColor=#82b366;" vertex="1" parent="qQ9u0ITdFLPHZTy9LnP3-132">
          <mxGeometry x="320" width="40" height="40" as="geometry" />
        </mxCell>
        <mxCell id="qQ9u0ITdFLPHZTy9LnP3-123" value="w" style="whiteSpace=wrap;html=1;aspect=fixed;fillColor=#d5e8d4;strokeColor=#82b366;" vertex="1" parent="qQ9u0ITdFLPHZTy9LnP3-132">
          <mxGeometry x="360" width="40" height="40" as="geometry" />
        </mxCell>
        <mxCell id="qQ9u0ITdFLPHZTy9LnP3-124" value="o" style="whiteSpace=wrap;html=1;aspect=fixed;fillColor=#d5e8d4;strokeColor=#82b366;" vertex="1" parent="qQ9u0ITdFLPHZTy9LnP3-132">
          <mxGeometry x="400" width="40" height="40" as="geometry" />
        </mxCell>
        <mxCell id="qQ9u0ITdFLPHZTy9LnP3-125" value="r" style="whiteSpace=wrap;html=1;aspect=fixed;fillColor=#d5e8d4;strokeColor=#82b366;" vertex="1" parent="qQ9u0ITdFLPHZTy9LnP3-132">
          <mxGeometry x="440" width="40" height="40" as="geometry" />
        </mxCell>
        <mxCell id="qQ9u0ITdFLPHZTy9LnP3-126" value="l" style="whiteSpace=wrap;html=1;aspect=fixed;fillColor=#d5e8d4;strokeColor=#82b366;" vertex="1" parent="qQ9u0ITdFLPHZTy9LnP3-132">
          <mxGeometry x="480" width="40" height="40" as="geometry" />
        </mxCell>
        <mxCell id="qQ9u0ITdFLPHZTy9LnP3-127" value="d" style="whiteSpace=wrap;html=1;aspect=fixed;fillColor=#d5e8d4;strokeColor=#82b366;" vertex="1" parent="qQ9u0ITdFLPHZTy9LnP3-132">
          <mxGeometry x="520" width="40" height="40" as="geometry" />
        </mxCell>
        <mxCell id="qQ9u0ITdFLPHZTy9LnP3-130" value="00" style="whiteSpace=wrap;html=1;aspect=fixed;fillColor=#fff2cc;strokeColor=#d6b656;" vertex="1" parent="qQ9u0ITdFLPHZTy9LnP3-132">
          <mxGeometry width="40" height="40" as="geometry" />
        </mxCell>
        <mxCell id="qQ9u0ITdFLPHZTy9LnP3-131" value="0E" style="whiteSpace=wrap;html=1;aspect=fixed;fillColor=#fff2cc;strokeColor=#d6b656;" vertex="1" parent="qQ9u0ITdFLPHZTy9LnP3-132">
          <mxGeometry x="40" width="40" height="40" as="geometry" />
        </mxCell>
        <mxCell id="qQ9u0ITdFLPHZTy9LnP3-170" value="含魔数字段" style="shape=umlFrame;whiteSpace=wrap;html=1;shadow=0;labelBackgroundColor=none;fontSize=14;fillColor=#dae8fc;width=155;height=30;strokeColor=#6c8ebf;" vertex="1" parent="1">
          <mxGeometry x="200" y="2520" width="680" height="280" as="geometry" />
        </mxCell>
        <mxCell id="qQ9u0ITdFLPHZTy9LnP3-133" value="" style="group" vertex="1" connectable="0" parent="1">
          <mxGeometry x="300" y="2580" width="560" height="40" as="geometry" />
        </mxCell>
        <mxCell id="qQ9u0ITdFLPHZTy9LnP3-134" value="00" style="whiteSpace=wrap;html=1;aspect=fixed;fillColor=#fff2cc;strokeColor=#d6b656;" vertex="1" parent="qQ9u0ITdFLPHZTy9LnP3-133">
          <mxGeometry width="40" height="40" as="geometry" />
        </mxCell>
        <mxCell id="qQ9u0ITdFLPHZTy9LnP3-135" value="0C" style="whiteSpace=wrap;html=1;aspect=fixed;fillColor=#fff2cc;strokeColor=#d6b656;" vertex="1" parent="qQ9u0ITdFLPHZTy9LnP3-133">
          <mxGeometry x="40" width="40" height="40" as="geometry" />
        </mxCell>
        <mxCell id="qQ9u0ITdFLPHZTy9LnP3-136" value="H" style="whiteSpace=wrap;html=1;aspect=fixed;fillColor=#d5e8d4;strokeColor=#82b366;" vertex="1" parent="qQ9u0ITdFLPHZTy9LnP3-133">
          <mxGeometry x="80" width="40" height="40" as="geometry" />
        </mxCell>
        <mxCell id="qQ9u0ITdFLPHZTy9LnP3-137" value="e" style="whiteSpace=wrap;html=1;aspect=fixed;fillColor=#d5e8d4;strokeColor=#82b366;" vertex="1" parent="qQ9u0ITdFLPHZTy9LnP3-133">
          <mxGeometry x="120" width="40" height="40" as="geometry" />
        </mxCell>
        <mxCell id="qQ9u0ITdFLPHZTy9LnP3-138" value="l" style="whiteSpace=wrap;html=1;aspect=fixed;fillColor=#d5e8d4;strokeColor=#82b366;" vertex="1" parent="qQ9u0ITdFLPHZTy9LnP3-133">
          <mxGeometry x="160" width="40" height="40" as="geometry" />
        </mxCell>
        <mxCell id="qQ9u0ITdFLPHZTy9LnP3-139" value="l" style="whiteSpace=wrap;html=1;aspect=fixed;fillColor=#d5e8d4;strokeColor=#82b366;" vertex="1" parent="qQ9u0ITdFLPHZTy9LnP3-133">
          <mxGeometry x="200" width="40" height="40" as="geometry" />
        </mxCell>
        <mxCell id="qQ9u0ITdFLPHZTy9LnP3-140" value="o" style="whiteSpace=wrap;html=1;aspect=fixed;fillColor=#d5e8d4;strokeColor=#82b366;" vertex="1" parent="qQ9u0ITdFLPHZTy9LnP3-133">
          <mxGeometry x="240" width="40" height="40" as="geometry" />
        </mxCell>
        <mxCell id="qQ9u0ITdFLPHZTy9LnP3-141" value="," style="whiteSpace=wrap;html=1;aspect=fixed;fillColor=#d5e8d4;strokeColor=#82b366;" vertex="1" parent="qQ9u0ITdFLPHZTy9LnP3-133">
          <mxGeometry x="280" width="40" height="40" as="geometry" />
        </mxCell>
        <mxCell id="qQ9u0ITdFLPHZTy9LnP3-142" value="空格" style="whiteSpace=wrap;html=1;aspect=fixed;fillColor=#d5e8d4;strokeColor=#82b366;" vertex="1" parent="qQ9u0ITdFLPHZTy9LnP3-133">
          <mxGeometry x="320" width="40" height="40" as="geometry" />
        </mxCell>
        <mxCell id="qQ9u0ITdFLPHZTy9LnP3-143" value="w" style="whiteSpace=wrap;html=1;aspect=fixed;fillColor=#d5e8d4;strokeColor=#82b366;" vertex="1" parent="qQ9u0ITdFLPHZTy9LnP3-133">
          <mxGeometry x="360" width="40" height="40" as="geometry" />
        </mxCell>
        <mxCell id="qQ9u0ITdFLPHZTy9LnP3-144" value="o" style="whiteSpace=wrap;html=1;aspect=fixed;fillColor=#d5e8d4;strokeColor=#82b366;" vertex="1" parent="qQ9u0ITdFLPHZTy9LnP3-133">
          <mxGeometry x="400" width="40" height="40" as="geometry" />
        </mxCell>
        <mxCell id="qQ9u0ITdFLPHZTy9LnP3-145" value="r" style="whiteSpace=wrap;html=1;aspect=fixed;fillColor=#d5e8d4;strokeColor=#82b366;" vertex="1" parent="qQ9u0ITdFLPHZTy9LnP3-133">
          <mxGeometry x="440" width="40" height="40" as="geometry" />
        </mxCell>
        <mxCell id="qQ9u0ITdFLPHZTy9LnP3-146" value="l" style="whiteSpace=wrap;html=1;aspect=fixed;fillColor=#d5e8d4;strokeColor=#82b366;" vertex="1" parent="qQ9u0ITdFLPHZTy9LnP3-133">
          <mxGeometry x="480" width="40" height="40" as="geometry" />
        </mxCell>
        <mxCell id="qQ9u0ITdFLPHZTy9LnP3-147" value="d" style="whiteSpace=wrap;html=1;aspect=fixed;fillColor=#d5e8d4;strokeColor=#82b366;" vertex="1" parent="qQ9u0ITdFLPHZTy9LnP3-133">
          <mxGeometry x="520" width="40" height="40" as="geometry" />
        </mxCell>
        <mxCell id="qQ9u0ITdFLPHZTy9LnP3-148" value="" style="shape=flexArrow;endArrow=classic;html=1;rounded=0;fillColor=#f8cecc;strokeColor=#b85450;" edge="1" parent="1">
          <mxGeometry width="50" height="50" relative="1" as="geometry">
            <mxPoint x="370" y="2640" as="sourcePoint" />
            <mxPoint x="370" y="2710" as="targetPoint" />
          </mxGeometry>
        </mxCell>
        <mxCell id="qQ9u0ITdFLPHZTy9LnP3-149" value="lengthFieldOffset：2&lt;br&gt;&lt;font color=&quot;#ff0000&quot;&gt;lengthFieldLength：2&lt;/font&gt;&lt;br&gt;lengthAdjustment：0&lt;br&gt;initialBytesToStrip：0" style="text;html=1;strokeColor=none;fillColor=none;align=left;verticalAlign=middle;whiteSpace=wrap;rounded=0;" vertex="1" parent="1">
          <mxGeometry x="402" y="2640" width="155" height="70" as="geometry" />
        </mxCell>
        <mxCell id="qQ9u0ITdFLPHZTy9LnP3-166" value="CA" style="whiteSpace=wrap;html=1;aspect=fixed;fillColor=#e1d5e7;strokeColor=#9673a6;" vertex="1" parent="1">
          <mxGeometry x="220" y="2580" width="40" height="40" as="geometry" />
        </mxCell>
        <mxCell id="qQ9u0ITdFLPHZTy9LnP3-167" value="FE" style="whiteSpace=wrap;html=1;aspect=fixed;fillColor=#e1d5e7;strokeColor=#9673a6;" vertex="1" parent="1">
          <mxGeometry x="260" y="2580" width="40" height="40" as="geometry" />
        </mxCell>
        <mxCell id="qQ9u0ITdFLPHZTy9LnP3-171" value="" style="group" vertex="1" connectable="0" parent="1">
          <mxGeometry x="220" y="2730" width="640" height="40" as="geometry" />
        </mxCell>
        <mxCell id="qQ9u0ITdFLPHZTy9LnP3-152" value="H" style="whiteSpace=wrap;html=1;aspect=fixed;fillColor=#d5e8d4;strokeColor=#82b366;" vertex="1" parent="qQ9u0ITdFLPHZTy9LnP3-171">
          <mxGeometry x="160" width="40" height="40" as="geometry" />
        </mxCell>
        <mxCell id="qQ9u0ITdFLPHZTy9LnP3-153" value="e" style="whiteSpace=wrap;html=1;aspect=fixed;fillColor=#d5e8d4;strokeColor=#82b366;" vertex="1" parent="qQ9u0ITdFLPHZTy9LnP3-171">
          <mxGeometry x="200" width="40" height="40" as="geometry" />
        </mxCell>
        <mxCell id="qQ9u0ITdFLPHZTy9LnP3-154" value="l" style="whiteSpace=wrap;html=1;aspect=fixed;fillColor=#d5e8d4;strokeColor=#82b366;" vertex="1" parent="qQ9u0ITdFLPHZTy9LnP3-171">
          <mxGeometry x="240" width="40" height="40" as="geometry" />
        </mxCell>
        <mxCell id="qQ9u0ITdFLPHZTy9LnP3-155" value="l" style="whiteSpace=wrap;html=1;aspect=fixed;fillColor=#d5e8d4;strokeColor=#82b366;" vertex="1" parent="qQ9u0ITdFLPHZTy9LnP3-171">
          <mxGeometry x="280" width="40" height="40" as="geometry" />
        </mxCell>
        <mxCell id="qQ9u0ITdFLPHZTy9LnP3-156" value="o" style="whiteSpace=wrap;html=1;aspect=fixed;fillColor=#d5e8d4;strokeColor=#82b366;" vertex="1" parent="qQ9u0ITdFLPHZTy9LnP3-171">
          <mxGeometry x="320" width="40" height="40" as="geometry" />
        </mxCell>
        <mxCell id="qQ9u0ITdFLPHZTy9LnP3-157" value="," style="whiteSpace=wrap;html=1;aspect=fixed;fillColor=#d5e8d4;strokeColor=#82b366;" vertex="1" parent="qQ9u0ITdFLPHZTy9LnP3-171">
          <mxGeometry x="360" width="40" height="40" as="geometry" />
        </mxCell>
        <mxCell id="qQ9u0ITdFLPHZTy9LnP3-158" value="空格" style="whiteSpace=wrap;html=1;aspect=fixed;fillColor=#d5e8d4;strokeColor=#82b366;" vertex="1" parent="qQ9u0ITdFLPHZTy9LnP3-171">
          <mxGeometry x="400" width="40" height="40" as="geometry" />
        </mxCell>
        <mxCell id="qQ9u0ITdFLPHZTy9LnP3-159" value="w" style="whiteSpace=wrap;html=1;aspect=fixed;fillColor=#d5e8d4;strokeColor=#82b366;" vertex="1" parent="qQ9u0ITdFLPHZTy9LnP3-171">
          <mxGeometry x="440" width="40" height="40" as="geometry" />
        </mxCell>
        <mxCell id="qQ9u0ITdFLPHZTy9LnP3-160" value="o" style="whiteSpace=wrap;html=1;aspect=fixed;fillColor=#d5e8d4;strokeColor=#82b366;" vertex="1" parent="qQ9u0ITdFLPHZTy9LnP3-171">
          <mxGeometry x="480" width="40" height="40" as="geometry" />
        </mxCell>
        <mxCell id="qQ9u0ITdFLPHZTy9LnP3-161" value="r" style="whiteSpace=wrap;html=1;aspect=fixed;fillColor=#d5e8d4;strokeColor=#82b366;" vertex="1" parent="qQ9u0ITdFLPHZTy9LnP3-171">
          <mxGeometry x="520" width="40" height="40" as="geometry" />
        </mxCell>
        <mxCell id="qQ9u0ITdFLPHZTy9LnP3-162" value="l" style="whiteSpace=wrap;html=1;aspect=fixed;fillColor=#d5e8d4;strokeColor=#82b366;" vertex="1" parent="qQ9u0ITdFLPHZTy9LnP3-171">
          <mxGeometry x="560" width="40" height="40" as="geometry" />
        </mxCell>
        <mxCell id="qQ9u0ITdFLPHZTy9LnP3-163" value="d" style="whiteSpace=wrap;html=1;aspect=fixed;fillColor=#d5e8d4;strokeColor=#82b366;" vertex="1" parent="qQ9u0ITdFLPHZTy9LnP3-171">
          <mxGeometry x="600" width="40" height="40" as="geometry" />
        </mxCell>
        <mxCell id="qQ9u0ITdFLPHZTy9LnP3-164" value="00" style="whiteSpace=wrap;html=1;aspect=fixed;fillColor=#fff2cc;strokeColor=#d6b656;" vertex="1" parent="qQ9u0ITdFLPHZTy9LnP3-171">
          <mxGeometry x="80" width="40" height="40" as="geometry" />
        </mxCell>
        <mxCell id="qQ9u0ITdFLPHZTy9LnP3-165" value="0C" style="whiteSpace=wrap;html=1;aspect=fixed;fillColor=#fff2cc;strokeColor=#d6b656;" vertex="1" parent="qQ9u0ITdFLPHZTy9LnP3-171">
          <mxGeometry x="120" width="40" height="40" as="geometry" />
        </mxCell>
        <mxCell id="qQ9u0ITdFLPHZTy9LnP3-168" value="CA" style="whiteSpace=wrap;html=1;aspect=fixed;fillColor=#e1d5e7;strokeColor=#9673a6;" vertex="1" parent="qQ9u0ITdFLPHZTy9LnP3-171">
          <mxGeometry width="40" height="40" as="geometry" />
        </mxCell>
        <mxCell id="qQ9u0ITdFLPHZTy9LnP3-169" value="FE" style="whiteSpace=wrap;html=1;aspect=fixed;fillColor=#e1d5e7;strokeColor=#9673a6;" vertex="1" parent="qQ9u0ITdFLPHZTy9LnP3-171">
          <mxGeometry x="40" width="40" height="40" as="geometry" />
        </mxCell>
        <mxCell id="qQ9u0ITdFLPHZTy9LnP3-172" value="长度字段在中间" style="shape=umlFrame;whiteSpace=wrap;html=1;shadow=0;labelBackgroundColor=none;fontSize=14;fillColor=#dae8fc;width=155;height=30;strokeColor=#6c8ebf;" vertex="1" parent="1">
          <mxGeometry x="200" y="2870" width="680" height="280" as="geometry" />
        </mxCell>
        <mxCell id="qQ9u0ITdFLPHZTy9LnP3-173" value="" style="group" vertex="1" connectable="0" parent="1">
          <mxGeometry x="300" y="2930" width="560" height="40" as="geometry" />
        </mxCell>
        <mxCell id="qQ9u0ITdFLPHZTy9LnP3-176" value="H" style="whiteSpace=wrap;html=1;aspect=fixed;fillColor=#d5e8d4;strokeColor=#82b366;" vertex="1" parent="qQ9u0ITdFLPHZTy9LnP3-173">
          <mxGeometry x="80" width="40" height="40" as="geometry" />
        </mxCell>
        <mxCell id="qQ9u0ITdFLPHZTy9LnP3-177" value="e" style="whiteSpace=wrap;html=1;aspect=fixed;fillColor=#d5e8d4;strokeColor=#82b366;" vertex="1" parent="qQ9u0ITdFLPHZTy9LnP3-173">
          <mxGeometry x="120" width="40" height="40" as="geometry" />
        </mxCell>
        <mxCell id="qQ9u0ITdFLPHZTy9LnP3-178" value="l" style="whiteSpace=wrap;html=1;aspect=fixed;fillColor=#d5e8d4;strokeColor=#82b366;" vertex="1" parent="qQ9u0ITdFLPHZTy9LnP3-173">
          <mxGeometry x="160" width="40" height="40" as="geometry" />
        </mxCell>
        <mxCell id="qQ9u0ITdFLPHZTy9LnP3-179" value="l" style="whiteSpace=wrap;html=1;aspect=fixed;fillColor=#d5e8d4;strokeColor=#82b366;" vertex="1" parent="qQ9u0ITdFLPHZTy9LnP3-173">
          <mxGeometry x="200" width="40" height="40" as="geometry" />
        </mxCell>
        <mxCell id="qQ9u0ITdFLPHZTy9LnP3-180" value="o" style="whiteSpace=wrap;html=1;aspect=fixed;fillColor=#d5e8d4;strokeColor=#82b366;" vertex="1" parent="qQ9u0ITdFLPHZTy9LnP3-173">
          <mxGeometry x="240" width="40" height="40" as="geometry" />
        </mxCell>
        <mxCell id="qQ9u0ITdFLPHZTy9LnP3-181" value="," style="whiteSpace=wrap;html=1;aspect=fixed;fillColor=#d5e8d4;strokeColor=#82b366;" vertex="1" parent="qQ9u0ITdFLPHZTy9LnP3-173">
          <mxGeometry x="280" width="40" height="40" as="geometry" />
        </mxCell>
        <mxCell id="qQ9u0ITdFLPHZTy9LnP3-182" value="空格" style="whiteSpace=wrap;html=1;aspect=fixed;fillColor=#d5e8d4;strokeColor=#82b366;" vertex="1" parent="qQ9u0ITdFLPHZTy9LnP3-173">
          <mxGeometry x="320" width="40" height="40" as="geometry" />
        </mxCell>
        <mxCell id="qQ9u0ITdFLPHZTy9LnP3-183" value="w" style="whiteSpace=wrap;html=1;aspect=fixed;fillColor=#d5e8d4;strokeColor=#82b366;" vertex="1" parent="qQ9u0ITdFLPHZTy9LnP3-173">
          <mxGeometry x="360" width="40" height="40" as="geometry" />
        </mxCell>
        <mxCell id="qQ9u0ITdFLPHZTy9LnP3-184" value="o" style="whiteSpace=wrap;html=1;aspect=fixed;fillColor=#d5e8d4;strokeColor=#82b366;" vertex="1" parent="qQ9u0ITdFLPHZTy9LnP3-173">
          <mxGeometry x="400" width="40" height="40" as="geometry" />
        </mxCell>
        <mxCell id="qQ9u0ITdFLPHZTy9LnP3-185" value="r" style="whiteSpace=wrap;html=1;aspect=fixed;fillColor=#d5e8d4;strokeColor=#82b366;" vertex="1" parent="qQ9u0ITdFLPHZTy9LnP3-173">
          <mxGeometry x="440" width="40" height="40" as="geometry" />
        </mxCell>
        <mxCell id="qQ9u0ITdFLPHZTy9LnP3-186" value="l" style="whiteSpace=wrap;html=1;aspect=fixed;fillColor=#d5e8d4;strokeColor=#82b366;" vertex="1" parent="qQ9u0ITdFLPHZTy9LnP3-173">
          <mxGeometry x="480" width="40" height="40" as="geometry" />
        </mxCell>
        <mxCell id="qQ9u0ITdFLPHZTy9LnP3-187" value="d" style="whiteSpace=wrap;html=1;aspect=fixed;fillColor=#d5e8d4;strokeColor=#82b366;" vertex="1" parent="qQ9u0ITdFLPHZTy9LnP3-173">
          <mxGeometry x="520" width="40" height="40" as="geometry" />
        </mxCell>
        <mxCell id="qQ9u0ITdFLPHZTy9LnP3-190" value="CA" style="whiteSpace=wrap;html=1;aspect=fixed;fillColor=#e1d5e7;strokeColor=#9673a6;" vertex="1" parent="qQ9u0ITdFLPHZTy9LnP3-173">
          <mxGeometry width="40" height="40" as="geometry" />
        </mxCell>
        <mxCell id="qQ9u0ITdFLPHZTy9LnP3-191" value="FE" style="whiteSpace=wrap;html=1;aspect=fixed;fillColor=#e1d5e7;strokeColor=#9673a6;" vertex="1" parent="qQ9u0ITdFLPHZTy9LnP3-173">
          <mxGeometry x="40" width="40" height="40" as="geometry" />
        </mxCell>
        <mxCell id="qQ9u0ITdFLPHZTy9LnP3-188" value="" style="shape=flexArrow;endArrow=classic;html=1;rounded=0;fillColor=#f8cecc;strokeColor=#b85450;" edge="1" parent="1">
          <mxGeometry width="50" height="50" relative="1" as="geometry">
            <mxPoint x="370" y="2990" as="sourcePoint" />
            <mxPoint x="370" y="3060" as="targetPoint" />
          </mxGeometry>
        </mxCell>
        <mxCell id="qQ9u0ITdFLPHZTy9LnP3-189" value="lengthFieldOffset：0&lt;br&gt;&lt;font color=&quot;#ff0000&quot;&gt;lengthFieldLength：2&lt;/font&gt;&lt;br&gt;&lt;font color=&quot;#ff0000&quot;&gt;lengthAdjustment：2&lt;br&gt;&lt;/font&gt;initialBytesToStrip：0" style="text;html=1;strokeColor=none;fillColor=none;align=left;verticalAlign=middle;whiteSpace=wrap;rounded=0;" vertex="1" parent="1">
          <mxGeometry x="402" y="2990" width="155" height="70" as="geometry" />
        </mxCell>
        <mxCell id="qQ9u0ITdFLPHZTy9LnP3-192" value="" style="group" vertex="1" connectable="0" parent="1">
          <mxGeometry x="220" y="3080" width="640" height="40" as="geometry" />
        </mxCell>
        <mxCell id="qQ9u0ITdFLPHZTy9LnP3-193" value="H" style="whiteSpace=wrap;html=1;aspect=fixed;fillColor=#d5e8d4;strokeColor=#82b366;" vertex="1" parent="qQ9u0ITdFLPHZTy9LnP3-192">
          <mxGeometry x="160" width="40" height="40" as="geometry" />
        </mxCell>
        <mxCell id="qQ9u0ITdFLPHZTy9LnP3-194" value="e" style="whiteSpace=wrap;html=1;aspect=fixed;fillColor=#d5e8d4;strokeColor=#82b366;" vertex="1" parent="qQ9u0ITdFLPHZTy9LnP3-192">
          <mxGeometry x="200" width="40" height="40" as="geometry" />
        </mxCell>
        <mxCell id="qQ9u0ITdFLPHZTy9LnP3-195" value="l" style="whiteSpace=wrap;html=1;aspect=fixed;fillColor=#d5e8d4;strokeColor=#82b366;" vertex="1" parent="qQ9u0ITdFLPHZTy9LnP3-192">
          <mxGeometry x="240" width="40" height="40" as="geometry" />
        </mxCell>
        <mxCell id="qQ9u0ITdFLPHZTy9LnP3-196" value="l" style="whiteSpace=wrap;html=1;aspect=fixed;fillColor=#d5e8d4;strokeColor=#82b366;" vertex="1" parent="qQ9u0ITdFLPHZTy9LnP3-192">
          <mxGeometry x="280" width="40" height="40" as="geometry" />
        </mxCell>
        <mxCell id="qQ9u0ITdFLPHZTy9LnP3-197" value="o" style="whiteSpace=wrap;html=1;aspect=fixed;fillColor=#d5e8d4;strokeColor=#82b366;" vertex="1" parent="qQ9u0ITdFLPHZTy9LnP3-192">
          <mxGeometry x="320" width="40" height="40" as="geometry" />
        </mxCell>
        <mxCell id="qQ9u0ITdFLPHZTy9LnP3-198" value="," style="whiteSpace=wrap;html=1;aspect=fixed;fillColor=#d5e8d4;strokeColor=#82b366;" vertex="1" parent="qQ9u0ITdFLPHZTy9LnP3-192">
          <mxGeometry x="360" width="40" height="40" as="geometry" />
        </mxCell>
        <mxCell id="qQ9u0ITdFLPHZTy9LnP3-199" value="空格" style="whiteSpace=wrap;html=1;aspect=fixed;fillColor=#d5e8d4;strokeColor=#82b366;" vertex="1" parent="qQ9u0ITdFLPHZTy9LnP3-192">
          <mxGeometry x="400" width="40" height="40" as="geometry" />
        </mxCell>
        <mxCell id="qQ9u0ITdFLPHZTy9LnP3-200" value="w" style="whiteSpace=wrap;html=1;aspect=fixed;fillColor=#d5e8d4;strokeColor=#82b366;" vertex="1" parent="qQ9u0ITdFLPHZTy9LnP3-192">
          <mxGeometry x="440" width="40" height="40" as="geometry" />
        </mxCell>
        <mxCell id="qQ9u0ITdFLPHZTy9LnP3-201" value="o" style="whiteSpace=wrap;html=1;aspect=fixed;fillColor=#d5e8d4;strokeColor=#82b366;" vertex="1" parent="qQ9u0ITdFLPHZTy9LnP3-192">
          <mxGeometry x="480" width="40" height="40" as="geometry" />
        </mxCell>
        <mxCell id="qQ9u0ITdFLPHZTy9LnP3-202" value="r" style="whiteSpace=wrap;html=1;aspect=fixed;fillColor=#d5e8d4;strokeColor=#82b366;" vertex="1" parent="qQ9u0ITdFLPHZTy9LnP3-192">
          <mxGeometry x="520" width="40" height="40" as="geometry" />
        </mxCell>
        <mxCell id="qQ9u0ITdFLPHZTy9LnP3-203" value="l" style="whiteSpace=wrap;html=1;aspect=fixed;fillColor=#d5e8d4;strokeColor=#82b366;" vertex="1" parent="qQ9u0ITdFLPHZTy9LnP3-192">
          <mxGeometry x="560" width="40" height="40" as="geometry" />
        </mxCell>
        <mxCell id="qQ9u0ITdFLPHZTy9LnP3-204" value="d" style="whiteSpace=wrap;html=1;aspect=fixed;fillColor=#d5e8d4;strokeColor=#82b366;" vertex="1" parent="qQ9u0ITdFLPHZTy9LnP3-192">
          <mxGeometry x="600" width="40" height="40" as="geometry" />
        </mxCell>
        <mxCell id="qQ9u0ITdFLPHZTy9LnP3-205" value="00" style="whiteSpace=wrap;html=1;aspect=fixed;fillColor=#fff2cc;strokeColor=#d6b656;" vertex="1" parent="qQ9u0ITdFLPHZTy9LnP3-192">
          <mxGeometry width="40" height="40" as="geometry" />
        </mxCell>
        <mxCell id="qQ9u0ITdFLPHZTy9LnP3-206" value="0C" style="whiteSpace=wrap;html=1;aspect=fixed;fillColor=#fff2cc;strokeColor=#d6b656;" vertex="1" parent="qQ9u0ITdFLPHZTy9LnP3-192">
          <mxGeometry x="40" width="40" height="40" as="geometry" />
        </mxCell>
        <mxCell id="qQ9u0ITdFLPHZTy9LnP3-207" value="CA" style="whiteSpace=wrap;html=1;aspect=fixed;fillColor=#e1d5e7;strokeColor=#9673a6;" vertex="1" parent="qQ9u0ITdFLPHZTy9LnP3-192">
          <mxGeometry x="80" width="40" height="40" as="geometry" />
        </mxCell>
        <mxCell id="qQ9u0ITdFLPHZTy9LnP3-208" value="FE" style="whiteSpace=wrap;html=1;aspect=fixed;fillColor=#e1d5e7;strokeColor=#9673a6;" vertex="1" parent="qQ9u0ITdFLPHZTy9LnP3-192">
          <mxGeometry x="120" width="40" height="40" as="geometry" />
        </mxCell>
        <mxCell id="qQ9u0ITdFLPHZTy9LnP3-174" value="00" style="whiteSpace=wrap;html=1;aspect=fixed;fillColor=#fff2cc;strokeColor=#d6b656;" vertex="1" parent="1">
          <mxGeometry x="220" y="2930" width="40" height="40" as="geometry" />
        </mxCell>
        <mxCell id="qQ9u0ITdFLPHZTy9LnP3-175" value="0C" style="whiteSpace=wrap;html=1;aspect=fixed;fillColor=#fff2cc;strokeColor=#d6b656;" vertex="1" parent="1">
          <mxGeometry x="260" y="2930" width="40" height="40" as="geometry" />
        </mxCell>
        <mxCell id="qQ9u0ITdFLPHZTy9LnP3-209" value="" style="group" vertex="1" connectable="0" parent="1">
          <mxGeometry x="305" y="3260" width="575" height="230" as="geometry" />
        </mxCell>
        <mxCell id="qQ9u0ITdFLPHZTy9LnP3-245" value="长度字段在中间" style="shape=umlFrame;whiteSpace=wrap;html=1;shadow=0;labelBackgroundColor=none;fontSize=14;fillColor=#dae8fc;width=155;height=30;strokeColor=#6c8ebf;" vertex="1" parent="qQ9u0ITdFLPHZTy9LnP3-209">
          <mxGeometry x="-105" y="-50" width="680" height="280" as="geometry" />
        </mxCell>
        <mxCell id="qQ9u0ITdFLPHZTy9LnP3-210" value="H" style="whiteSpace=wrap;html=1;aspect=fixed;fillColor=#d5e8d4;strokeColor=#82b366;" vertex="1" parent="qQ9u0ITdFLPHZTy9LnP3-209">
          <mxGeometry x="75.5" y="10" width="40" height="40" as="geometry" />
        </mxCell>
        <mxCell id="qQ9u0ITdFLPHZTy9LnP3-211" value="e" style="whiteSpace=wrap;html=1;aspect=fixed;fillColor=#d5e8d4;strokeColor=#82b366;" vertex="1" parent="qQ9u0ITdFLPHZTy9LnP3-209">
          <mxGeometry x="115.5" y="10" width="40" height="40" as="geometry" />
        </mxCell>
        <mxCell id="qQ9u0ITdFLPHZTy9LnP3-212" value="l" style="whiteSpace=wrap;html=1;aspect=fixed;fillColor=#d5e8d4;strokeColor=#82b366;" vertex="1" parent="qQ9u0ITdFLPHZTy9LnP3-209">
          <mxGeometry x="155.5" y="10" width="40" height="40" as="geometry" />
        </mxCell>
        <mxCell id="qQ9u0ITdFLPHZTy9LnP3-213" value="l" style="whiteSpace=wrap;html=1;aspect=fixed;fillColor=#d5e8d4;strokeColor=#82b366;" vertex="1" parent="qQ9u0ITdFLPHZTy9LnP3-209">
          <mxGeometry x="195.5" y="10" width="40" height="40" as="geometry" />
        </mxCell>
        <mxCell id="qQ9u0ITdFLPHZTy9LnP3-214" value="o" style="whiteSpace=wrap;html=1;aspect=fixed;fillColor=#d5e8d4;strokeColor=#82b366;" vertex="1" parent="qQ9u0ITdFLPHZTy9LnP3-209">
          <mxGeometry x="235.5" y="10" width="40" height="40" as="geometry" />
        </mxCell>
        <mxCell id="qQ9u0ITdFLPHZTy9LnP3-215" value="," style="whiteSpace=wrap;html=1;aspect=fixed;fillColor=#d5e8d4;strokeColor=#82b366;" vertex="1" parent="qQ9u0ITdFLPHZTy9LnP3-209">
          <mxGeometry x="275.5" y="10" width="40" height="40" as="geometry" />
        </mxCell>
        <mxCell id="qQ9u0ITdFLPHZTy9LnP3-216" value="空格" style="whiteSpace=wrap;html=1;aspect=fixed;fillColor=#d5e8d4;strokeColor=#82b366;" vertex="1" parent="qQ9u0ITdFLPHZTy9LnP3-209">
          <mxGeometry x="315.5" y="10" width="40" height="40" as="geometry" />
        </mxCell>
        <mxCell id="qQ9u0ITdFLPHZTy9LnP3-217" value="w" style="whiteSpace=wrap;html=1;aspect=fixed;fillColor=#d5e8d4;strokeColor=#82b366;" vertex="1" parent="qQ9u0ITdFLPHZTy9LnP3-209">
          <mxGeometry x="355.5" y="10" width="40" height="40" as="geometry" />
        </mxCell>
        <mxCell id="qQ9u0ITdFLPHZTy9LnP3-218" value="o" style="whiteSpace=wrap;html=1;aspect=fixed;fillColor=#d5e8d4;strokeColor=#82b366;" vertex="1" parent="qQ9u0ITdFLPHZTy9LnP3-209">
          <mxGeometry x="395.5" y="10" width="40" height="40" as="geometry" />
        </mxCell>
        <mxCell id="qQ9u0ITdFLPHZTy9LnP3-219" value="r" style="whiteSpace=wrap;html=1;aspect=fixed;fillColor=#d5e8d4;strokeColor=#82b366;" vertex="1" parent="qQ9u0ITdFLPHZTy9LnP3-209">
          <mxGeometry x="435.5" y="10" width="40" height="40" as="geometry" />
        </mxCell>
        <mxCell id="qQ9u0ITdFLPHZTy9LnP3-220" value="l" style="whiteSpace=wrap;html=1;aspect=fixed;fillColor=#d5e8d4;strokeColor=#82b366;" vertex="1" parent="qQ9u0ITdFLPHZTy9LnP3-209">
          <mxGeometry x="475.5" y="10" width="40" height="40" as="geometry" />
        </mxCell>
        <mxCell id="qQ9u0ITdFLPHZTy9LnP3-221" value="d" style="whiteSpace=wrap;html=1;aspect=fixed;fillColor=#d5e8d4;strokeColor=#82b366;" vertex="1" parent="qQ9u0ITdFLPHZTy9LnP3-209">
          <mxGeometry x="515.5" y="10" width="40" height="40" as="geometry" />
        </mxCell>
        <mxCell id="qQ9u0ITdFLPHZTy9LnP3-223" value="FE" style="whiteSpace=wrap;html=1;aspect=fixed;fillColor=#e1d5e7;strokeColor=#9673a6;" vertex="1" parent="qQ9u0ITdFLPHZTy9LnP3-209">
          <mxGeometry x="35.5" y="10" width="40" height="40" as="geometry" />
        </mxCell>
        <mxCell id="qQ9u0ITdFLPHZTy9LnP3-243" value="00" style="whiteSpace=wrap;html=1;aspect=fixed;fillColor=#fff2cc;strokeColor=#d6b656;" vertex="1" parent="qQ9u0ITdFLPHZTy9LnP3-209">
          <mxGeometry x="-44.5" y="10" width="40" height="40" as="geometry" />
        </mxCell>
        <mxCell id="qQ9u0ITdFLPHZTy9LnP3-244" value="0C" style="whiteSpace=wrap;html=1;aspect=fixed;fillColor=#fff2cc;strokeColor=#d6b656;" vertex="1" parent="qQ9u0ITdFLPHZTy9LnP3-209">
          <mxGeometry x="-4.5" y="10" width="40" height="40" as="geometry" />
        </mxCell>
        <mxCell id="qQ9u0ITdFLPHZTy9LnP3-222" value="CA" style="whiteSpace=wrap;html=1;aspect=fixed;fillColor=#e1d5e7;strokeColor=#9673a6;" vertex="1" parent="qQ9u0ITdFLPHZTy9LnP3-209">
          <mxGeometry x="-84.5" y="10" width="40" height="40" as="geometry" />
        </mxCell>
        <mxCell id="qQ9u0ITdFLPHZTy9LnP3-224" value="" style="shape=flexArrow;endArrow=classic;html=1;rounded=0;fillColor=#f8cecc;strokeColor=#b85450;" edge="1" parent="qQ9u0ITdFLPHZTy9LnP3-209">
          <mxGeometry width="50" height="50" relative="1" as="geometry">
            <mxPoint x="65.5" y="70" as="sourcePoint" />
            <mxPoint x="65.5" y="140" as="targetPoint" />
          </mxGeometry>
        </mxCell>
        <mxCell id="qQ9u0ITdFLPHZTy9LnP3-225" value="&lt;font color=&quot;#ff0000&quot;&gt;lengthFieldOffset：1&lt;br&gt;lengthFieldLength：2&lt;br&gt;lengthAdjustment：1&lt;br&gt;initialBytesToStrip：3&lt;/font&gt;" style="text;html=1;strokeColor=none;fillColor=none;align=left;verticalAlign=middle;whiteSpace=wrap;rounded=0;" vertex="1" parent="qQ9u0ITdFLPHZTy9LnP3-209">
          <mxGeometry x="97.5" y="70" width="155" height="70" as="geometry" />
        </mxCell>
        <mxCell id="qQ9u0ITdFLPHZTy9LnP3-227" value="H" style="whiteSpace=wrap;html=1;aspect=fixed;fillColor=#d5e8d4;strokeColor=#82b366;" vertex="1" parent="qQ9u0ITdFLPHZTy9LnP3-209">
          <mxGeometry x="-45.5" y="160" width="40" height="40" as="geometry" />
        </mxCell>
        <mxCell id="qQ9u0ITdFLPHZTy9LnP3-228" value="e" style="whiteSpace=wrap;html=1;aspect=fixed;fillColor=#d5e8d4;strokeColor=#82b366;" vertex="1" parent="qQ9u0ITdFLPHZTy9LnP3-209">
          <mxGeometry x="-5.5" y="160" width="40" height="40" as="geometry" />
        </mxCell>
        <mxCell id="qQ9u0ITdFLPHZTy9LnP3-229" value="l" style="whiteSpace=wrap;html=1;aspect=fixed;fillColor=#d5e8d4;strokeColor=#82b366;" vertex="1" parent="qQ9u0ITdFLPHZTy9LnP3-209">
          <mxGeometry x="34.5" y="160" width="40" height="40" as="geometry" />
        </mxCell>
        <mxCell id="qQ9u0ITdFLPHZTy9LnP3-230" value="l" style="whiteSpace=wrap;html=1;aspect=fixed;fillColor=#d5e8d4;strokeColor=#82b366;" vertex="1" parent="qQ9u0ITdFLPHZTy9LnP3-209">
          <mxGeometry x="74.5" y="160" width="40" height="40" as="geometry" />
        </mxCell>
        <mxCell id="qQ9u0ITdFLPHZTy9LnP3-231" value="o" style="whiteSpace=wrap;html=1;aspect=fixed;fillColor=#d5e8d4;strokeColor=#82b366;" vertex="1" parent="qQ9u0ITdFLPHZTy9LnP3-209">
          <mxGeometry x="114.5" y="160" width="40" height="40" as="geometry" />
        </mxCell>
        <mxCell id="qQ9u0ITdFLPHZTy9LnP3-232" value="," style="whiteSpace=wrap;html=1;aspect=fixed;fillColor=#d5e8d4;strokeColor=#82b366;" vertex="1" parent="qQ9u0ITdFLPHZTy9LnP3-209">
          <mxGeometry x="154.5" y="160" width="40" height="40" as="geometry" />
        </mxCell>
        <mxCell id="qQ9u0ITdFLPHZTy9LnP3-233" value="空格" style="whiteSpace=wrap;html=1;aspect=fixed;fillColor=#d5e8d4;strokeColor=#82b366;" vertex="1" parent="qQ9u0ITdFLPHZTy9LnP3-209">
          <mxGeometry x="194.5" y="160" width="40" height="40" as="geometry" />
        </mxCell>
        <mxCell id="qQ9u0ITdFLPHZTy9LnP3-234" value="w" style="whiteSpace=wrap;html=1;aspect=fixed;fillColor=#d5e8d4;strokeColor=#82b366;" vertex="1" parent="qQ9u0ITdFLPHZTy9LnP3-209">
          <mxGeometry x="234.5" y="160" width="40" height="40" as="geometry" />
        </mxCell>
        <mxCell id="qQ9u0ITdFLPHZTy9LnP3-235" value="o" style="whiteSpace=wrap;html=1;aspect=fixed;fillColor=#d5e8d4;strokeColor=#82b366;" vertex="1" parent="qQ9u0ITdFLPHZTy9LnP3-209">
          <mxGeometry x="274.5" y="160" width="40" height="40" as="geometry" />
        </mxCell>
        <mxCell id="qQ9u0ITdFLPHZTy9LnP3-236" value="r" style="whiteSpace=wrap;html=1;aspect=fixed;fillColor=#d5e8d4;strokeColor=#82b366;" vertex="1" parent="qQ9u0ITdFLPHZTy9LnP3-209">
          <mxGeometry x="314.5" y="160" width="40" height="40" as="geometry" />
        </mxCell>
        <mxCell id="qQ9u0ITdFLPHZTy9LnP3-237" value="l" style="whiteSpace=wrap;html=1;aspect=fixed;fillColor=#d5e8d4;strokeColor=#82b366;" vertex="1" parent="qQ9u0ITdFLPHZTy9LnP3-209">
          <mxGeometry x="354.5" y="160" width="40" height="40" as="geometry" />
        </mxCell>
        <mxCell id="qQ9u0ITdFLPHZTy9LnP3-238" value="d" style="whiteSpace=wrap;html=1;aspect=fixed;fillColor=#d5e8d4;strokeColor=#82b366;" vertex="1" parent="qQ9u0ITdFLPHZTy9LnP3-209">
          <mxGeometry x="394.5" y="160" width="40" height="40" as="geometry" />
        </mxCell>
        <mxCell id="qQ9u0ITdFLPHZTy9LnP3-242" value="FE" style="whiteSpace=wrap;html=1;aspect=fixed;fillColor=#e1d5e7;strokeColor=#9673a6;" vertex="1" parent="qQ9u0ITdFLPHZTy9LnP3-209">
          <mxGeometry x="-85.5" y="160" width="40" height="40" as="geometry" />
        </mxCell>
        <mxCell id="qQ9u0ITdFLPHZTy9LnP3-246" value="" style="group" vertex="1" connectable="0" parent="1">
          <mxGeometry x="305" y="3600" width="575" height="230" as="geometry" />
        </mxCell>
        <mxCell id="qQ9u0ITdFLPHZTy9LnP3-247" value="长度包含所有" style="shape=umlFrame;whiteSpace=wrap;html=1;shadow=0;labelBackgroundColor=none;fontSize=14;fillColor=#dae8fc;width=155;height=30;strokeColor=#6c8ebf;" vertex="1" parent="qQ9u0ITdFLPHZTy9LnP3-246">
          <mxGeometry x="-105" y="-50" width="680" height="280" as="geometry" />
        </mxCell>
        <mxCell id="qQ9u0ITdFLPHZTy9LnP3-248" value="H" style="whiteSpace=wrap;html=1;aspect=fixed;fillColor=#d5e8d4;strokeColor=#82b366;" vertex="1" parent="qQ9u0ITdFLPHZTy9LnP3-246">
          <mxGeometry x="75.5" y="10" width="40" height="40" as="geometry" />
        </mxCell>
        <mxCell id="qQ9u0ITdFLPHZTy9LnP3-249" value="e" style="whiteSpace=wrap;html=1;aspect=fixed;fillColor=#d5e8d4;strokeColor=#82b366;" vertex="1" parent="qQ9u0ITdFLPHZTy9LnP3-246">
          <mxGeometry x="115.5" y="10" width="40" height="40" as="geometry" />
        </mxCell>
        <mxCell id="qQ9u0ITdFLPHZTy9LnP3-250" value="l" style="whiteSpace=wrap;html=1;aspect=fixed;fillColor=#d5e8d4;strokeColor=#82b366;" vertex="1" parent="qQ9u0ITdFLPHZTy9LnP3-246">
          <mxGeometry x="155.5" y="10" width="40" height="40" as="geometry" />
        </mxCell>
        <mxCell id="qQ9u0ITdFLPHZTy9LnP3-251" value="l" style="whiteSpace=wrap;html=1;aspect=fixed;fillColor=#d5e8d4;strokeColor=#82b366;" vertex="1" parent="qQ9u0ITdFLPHZTy9LnP3-246">
          <mxGeometry x="195.5" y="10" width="40" height="40" as="geometry" />
        </mxCell>
        <mxCell id="qQ9u0ITdFLPHZTy9LnP3-252" value="o" style="whiteSpace=wrap;html=1;aspect=fixed;fillColor=#d5e8d4;strokeColor=#82b366;" vertex="1" parent="qQ9u0ITdFLPHZTy9LnP3-246">
          <mxGeometry x="235.5" y="10" width="40" height="40" as="geometry" />
        </mxCell>
        <mxCell id="qQ9u0ITdFLPHZTy9LnP3-253" value="," style="whiteSpace=wrap;html=1;aspect=fixed;fillColor=#d5e8d4;strokeColor=#82b366;" vertex="1" parent="qQ9u0ITdFLPHZTy9LnP3-246">
          <mxGeometry x="275.5" y="10" width="40" height="40" as="geometry" />
        </mxCell>
        <mxCell id="qQ9u0ITdFLPHZTy9LnP3-254" value="空格" style="whiteSpace=wrap;html=1;aspect=fixed;fillColor=#d5e8d4;strokeColor=#82b366;" vertex="1" parent="qQ9u0ITdFLPHZTy9LnP3-246">
          <mxGeometry x="315.5" y="10" width="40" height="40" as="geometry" />
        </mxCell>
        <mxCell id="qQ9u0ITdFLPHZTy9LnP3-255" value="w" style="whiteSpace=wrap;html=1;aspect=fixed;fillColor=#d5e8d4;strokeColor=#82b366;" vertex="1" parent="qQ9u0ITdFLPHZTy9LnP3-246">
          <mxGeometry x="355.5" y="10" width="40" height="40" as="geometry" />
        </mxCell>
        <mxCell id="qQ9u0ITdFLPHZTy9LnP3-256" value="o" style="whiteSpace=wrap;html=1;aspect=fixed;fillColor=#d5e8d4;strokeColor=#82b366;" vertex="1" parent="qQ9u0ITdFLPHZTy9LnP3-246">
          <mxGeometry x="395.5" y="10" width="40" height="40" as="geometry" />
        </mxCell>
        <mxCell id="qQ9u0ITdFLPHZTy9LnP3-257" value="r" style="whiteSpace=wrap;html=1;aspect=fixed;fillColor=#d5e8d4;strokeColor=#82b366;" vertex="1" parent="qQ9u0ITdFLPHZTy9LnP3-246">
          <mxGeometry x="435.5" y="10" width="40" height="40" as="geometry" />
        </mxCell>
        <mxCell id="qQ9u0ITdFLPHZTy9LnP3-258" value="l" style="whiteSpace=wrap;html=1;aspect=fixed;fillColor=#d5e8d4;strokeColor=#82b366;" vertex="1" parent="qQ9u0ITdFLPHZTy9LnP3-246">
          <mxGeometry x="475.5" y="10" width="40" height="40" as="geometry" />
        </mxCell>
        <mxCell id="qQ9u0ITdFLPHZTy9LnP3-259" value="d" style="whiteSpace=wrap;html=1;aspect=fixed;fillColor=#d5e8d4;strokeColor=#82b366;" vertex="1" parent="qQ9u0ITdFLPHZTy9LnP3-246">
          <mxGeometry x="515.5" y="10" width="40" height="40" as="geometry" />
        </mxCell>
        <mxCell id="qQ9u0ITdFLPHZTy9LnP3-260" value="FE" style="whiteSpace=wrap;html=1;aspect=fixed;fillColor=#e1d5e7;strokeColor=#9673a6;" vertex="1" parent="qQ9u0ITdFLPHZTy9LnP3-246">
          <mxGeometry x="35.5" y="10" width="40" height="40" as="geometry" />
        </mxCell>
        <mxCell id="qQ9u0ITdFLPHZTy9LnP3-261" value="00" style="whiteSpace=wrap;html=1;aspect=fixed;fillColor=#fff2cc;strokeColor=#d6b656;" vertex="1" parent="qQ9u0ITdFLPHZTy9LnP3-246">
          <mxGeometry x="-44.5" y="10" width="40" height="40" as="geometry" />
        </mxCell>
        <mxCell id="qQ9u0ITdFLPHZTy9LnP3-262" value="10" style="whiteSpace=wrap;html=1;aspect=fixed;fillColor=#fff2cc;strokeColor=#d6b656;" vertex="1" parent="qQ9u0ITdFLPHZTy9LnP3-246">
          <mxGeometry x="-4.5" y="10" width="40" height="40" as="geometry" />
        </mxCell>
        <mxCell id="qQ9u0ITdFLPHZTy9LnP3-263" value="CA" style="whiteSpace=wrap;html=1;aspect=fixed;fillColor=#e1d5e7;strokeColor=#9673a6;" vertex="1" parent="qQ9u0ITdFLPHZTy9LnP3-246">
          <mxGeometry x="-84.5" y="10" width="40" height="40" as="geometry" />
        </mxCell>
        <mxCell id="qQ9u0ITdFLPHZTy9LnP3-264" value="" style="shape=flexArrow;endArrow=classic;html=1;rounded=0;fillColor=#f8cecc;strokeColor=#b85450;" edge="1" parent="qQ9u0ITdFLPHZTy9LnP3-246">
          <mxGeometry width="50" height="50" relative="1" as="geometry">
            <mxPoint x="65.5" y="70" as="sourcePoint" />
            <mxPoint x="65.5" y="140" as="targetPoint" />
          </mxGeometry>
        </mxCell>
        <mxCell id="qQ9u0ITdFLPHZTy9LnP3-265" value="&lt;font color=&quot;#ff0000&quot;&gt;lengthFieldOffset：1&lt;br&gt;lengthFieldLength：2&lt;br&gt;lengthAdjustment：-3&lt;br&gt;initialBytesToStrip：3&lt;/font&gt;" style="text;html=1;strokeColor=none;fillColor=none;align=left;verticalAlign=middle;whiteSpace=wrap;rounded=0;" vertex="1" parent="qQ9u0ITdFLPHZTy9LnP3-246">
          <mxGeometry x="97.5" y="70" width="155" height="70" as="geometry" />
        </mxCell>
        <mxCell id="qQ9u0ITdFLPHZTy9LnP3-266" value="H" style="whiteSpace=wrap;html=1;aspect=fixed;fillColor=#d5e8d4;strokeColor=#82b366;" vertex="1" parent="qQ9u0ITdFLPHZTy9LnP3-246">
          <mxGeometry x="-45.5" y="160" width="40" height="40" as="geometry" />
        </mxCell>
        <mxCell id="qQ9u0ITdFLPHZTy9LnP3-267" value="e" style="whiteSpace=wrap;html=1;aspect=fixed;fillColor=#d5e8d4;strokeColor=#82b366;" vertex="1" parent="qQ9u0ITdFLPHZTy9LnP3-246">
          <mxGeometry x="-5.5" y="160" width="40" height="40" as="geometry" />
        </mxCell>
        <mxCell id="qQ9u0ITdFLPHZTy9LnP3-268" value="l" style="whiteSpace=wrap;html=1;aspect=fixed;fillColor=#d5e8d4;strokeColor=#82b366;" vertex="1" parent="qQ9u0ITdFLPHZTy9LnP3-246">
          <mxGeometry x="34.5" y="160" width="40" height="40" as="geometry" />
        </mxCell>
        <mxCell id="qQ9u0ITdFLPHZTy9LnP3-269" value="l" style="whiteSpace=wrap;html=1;aspect=fixed;fillColor=#d5e8d4;strokeColor=#82b366;" vertex="1" parent="qQ9u0ITdFLPHZTy9LnP3-246">
          <mxGeometry x="74.5" y="160" width="40" height="40" as="geometry" />
        </mxCell>
        <mxCell id="qQ9u0ITdFLPHZTy9LnP3-270" value="o" style="whiteSpace=wrap;html=1;aspect=fixed;fillColor=#d5e8d4;strokeColor=#82b366;" vertex="1" parent="qQ9u0ITdFLPHZTy9LnP3-246">
          <mxGeometry x="114.5" y="160" width="40" height="40" as="geometry" />
        </mxCell>
        <mxCell id="qQ9u0ITdFLPHZTy9LnP3-271" value="," style="whiteSpace=wrap;html=1;aspect=fixed;fillColor=#d5e8d4;strokeColor=#82b366;" vertex="1" parent="qQ9u0ITdFLPHZTy9LnP3-246">
          <mxGeometry x="154.5" y="160" width="40" height="40" as="geometry" />
        </mxCell>
        <mxCell id="qQ9u0ITdFLPHZTy9LnP3-272" value="空格" style="whiteSpace=wrap;html=1;aspect=fixed;fillColor=#d5e8d4;strokeColor=#82b366;" vertex="1" parent="qQ9u0ITdFLPHZTy9LnP3-246">
          <mxGeometry x="194.5" y="160" width="40" height="40" as="geometry" />
        </mxCell>
        <mxCell id="qQ9u0ITdFLPHZTy9LnP3-273" value="w" style="whiteSpace=wrap;html=1;aspect=fixed;fillColor=#d5e8d4;strokeColor=#82b366;" vertex="1" parent="qQ9u0ITdFLPHZTy9LnP3-246">
          <mxGeometry x="234.5" y="160" width="40" height="40" as="geometry" />
        </mxCell>
        <mxCell id="qQ9u0ITdFLPHZTy9LnP3-274" value="o" style="whiteSpace=wrap;html=1;aspect=fixed;fillColor=#d5e8d4;strokeColor=#82b366;" vertex="1" parent="qQ9u0ITdFLPHZTy9LnP3-246">
          <mxGeometry x="274.5" y="160" width="40" height="40" as="geometry" />
        </mxCell>
        <mxCell id="qQ9u0ITdFLPHZTy9LnP3-275" value="r" style="whiteSpace=wrap;html=1;aspect=fixed;fillColor=#d5e8d4;strokeColor=#82b366;" vertex="1" parent="qQ9u0ITdFLPHZTy9LnP3-246">
          <mxGeometry x="314.5" y="160" width="40" height="40" as="geometry" />
        </mxCell>
        <mxCell id="qQ9u0ITdFLPHZTy9LnP3-276" value="l" style="whiteSpace=wrap;html=1;aspect=fixed;fillColor=#d5e8d4;strokeColor=#82b366;" vertex="1" parent="qQ9u0ITdFLPHZTy9LnP3-246">
          <mxGeometry x="354.5" y="160" width="40" height="40" as="geometry" />
        </mxCell>
        <mxCell id="qQ9u0ITdFLPHZTy9LnP3-277" value="d" style="whiteSpace=wrap;html=1;aspect=fixed;fillColor=#d5e8d4;strokeColor=#82b366;" vertex="1" parent="qQ9u0ITdFLPHZTy9LnP3-246">
          <mxGeometry x="394.5" y="160" width="40" height="40" as="geometry" />
        </mxCell>
        <mxCell id="qQ9u0ITdFLPHZTy9LnP3-278" value="FE" style="whiteSpace=wrap;html=1;aspect=fixed;fillColor=#e1d5e7;strokeColor=#9673a6;" vertex="1" parent="qQ9u0ITdFLPHZTy9LnP3-246">
          <mxGeometry x="-85.5" y="160" width="40" height="40" as="geometry" />
        </mxCell>
        <mxCell id="qQ9u0ITdFLPHZTy9LnP3-279" value="&lt;b&gt;&lt;font style=&quot;font-size: 14px;&quot;&gt;LengthFieldBasedFrameDecoder&lt;/font&gt;&lt;/b&gt;&lt;br&gt;&lt;br&gt;lengthFieldOffset：长度&lt;span style=&quot;color: rgb(0, 0, 0);&quot;&gt;域&lt;/span&gt;&lt;span style=&quot;color: rgb(0, 0, 0);&quot;&gt;偏移量&lt;/span&gt;&lt;br style=&quot;color: rgb(0, 0, 0);&quot;&gt;&lt;font color=&quot;#000000&quot;&gt;&lt;font style=&quot;&quot;&gt;lengthFieldLength：长度域长度&lt;/font&gt;&lt;br style=&quot;&quot;&gt;&lt;/font&gt;&lt;span style=&quot;color: rgb(0, 0, 0);&quot;&gt;lengthAdjustment：数据调整量，依据长度字段调整&lt;/span&gt;&lt;br style=&quot;color: rgb(0, 0, 0);&quot;&gt;&lt;span style=&quot;color: rgb(0, 0, 0);&quot;&gt;initialBytesToStrip：往后传递时，丢弃多少字节&lt;/span&gt;" style="shape=note;whiteSpace=wrap;html=1;backgroundOutline=1;darkOpacity=0.05;align=left;spacing=10;fillColor=#fff2cc;strokeColor=#d6b656;" vertex="1" parent="1">
          <mxGeometry x="200.5" y="1390" width="319" height="110" as="geometry" />
        </mxCell>
      </root>
    </mxGraphModel>
  </diagram>
</mxfile>
